<svg width="428" height="922" viewBox="0 0 428 922" fill="none" xmlns="http://www.w3.org/2000/svg">
<g clip-path="url(#clip0_141_42853)">
<rect x="8" y="8" width="412" height="906" rx="28" fill="#FEF7FF"/>
<rect width="412" height="52" transform="translate(8 8)" fill="#2AE881"/>
<path d="M34.0781 43.7012H34.2148C34.8438 43.7012 35.3678 43.6191 35.7871 43.4551C36.2109 43.2865 36.5482 43.054 36.7988 42.7578C37.0495 42.4616 37.2295 42.113 37.3389 41.7119C37.4482 41.3109 37.5029 40.8757 37.5029 40.4062V38.6904C37.5029 38.2848 37.4596 37.9294 37.373 37.624C37.291 37.3141 37.1725 37.0566 37.0176 36.8516C36.8672 36.6419 36.6917 36.4847 36.4912 36.3799C36.2952 36.2751 36.0833 36.2227 35.8555 36.2227C35.6048 36.2227 35.3792 36.2796 35.1787 36.3936C34.9827 36.5029 34.8164 36.6556 34.6797 36.8516C34.5475 37.043 34.445 37.2686 34.3721 37.5283C34.3037 37.7835 34.2695 38.057 34.2695 38.3486C34.2695 38.6221 34.3014 38.8864 34.3652 39.1416C34.4336 39.3923 34.5339 39.6156 34.666 39.8115C34.7982 40.0075 34.9645 40.1624 35.165 40.2764C35.3656 40.3903 35.6003 40.4473 35.8691 40.4473C36.1243 40.4473 36.359 40.3994 36.5732 40.3037C36.7874 40.2035 36.9743 40.069 37.1338 39.9004C37.2933 39.7318 37.4186 39.5426 37.5098 39.333C37.6009 39.1234 37.651 38.9092 37.6602 38.6904L38.2891 38.8818C38.2891 39.2282 38.2161 39.57 38.0703 39.9072C37.929 40.2399 37.7308 40.5452 37.4756 40.8232C37.2249 41.0967 36.931 41.3154 36.5938 41.4795C36.2611 41.6436 35.8988 41.7256 35.5068 41.7256C35.0329 41.7256 34.6136 41.6367 34.249 41.459C33.889 41.2767 33.5882 41.0306 33.3467 40.7207C33.1097 40.4108 32.932 40.0553 32.8135 39.6543C32.695 39.2533 32.6357 38.8317 32.6357 38.3896C32.6357 37.9111 32.7087 37.4622 32.8545 37.043C33.0003 36.6237 33.2122 36.2546 33.4902 35.9355C33.7682 35.612 34.1055 35.3613 34.502 35.1836C34.903 35.0013 35.3564 34.9102 35.8623 34.9102C36.4001 34.9102 36.8717 35.015 37.2773 35.2246C37.6829 35.4342 38.0247 35.7236 38.3027 36.0928C38.5807 36.4619 38.7904 36.8903 38.9316 37.3779C39.0729 37.8656 39.1436 38.3896 39.1436 38.9502V39.5312C39.1436 40.1191 39.0911 40.6865 38.9863 41.2334C38.8815 41.7757 38.7106 42.2793 38.4736 42.7441C38.2412 43.2044 37.9336 43.61 37.5508 43.9609C37.1725 44.3073 36.7077 44.5785 36.1562 44.7744C35.6094 44.9658 34.9668 45.0615 34.2285 45.0615H34.0781V43.7012ZM41.1019 44.1797C41.1019 43.9245 41.1885 43.7103 41.3617 43.5371C41.5349 43.3594 41.7696 43.2705 42.0658 43.2705C42.3666 43.2705 42.6013 43.3594 42.7699 43.5371C42.9431 43.7103 43.0296 43.9245 43.0296 44.1797C43.0296 44.4349 42.9431 44.6491 42.7699 44.8223C42.6013 44.9954 42.3666 45.082 42.0658 45.082C41.7696 45.082 41.5349 44.9954 41.3617 44.8223C41.1885 44.6491 41.1019 44.4349 41.1019 44.1797ZM41.1088 38.3555C41.1088 38.1003 41.1953 37.8861 41.3685 37.7129C41.5417 37.5352 41.7764 37.4463 42.0726 37.4463C42.3734 37.4463 42.6081 37.5352 42.7767 37.7129C42.9499 37.8861 43.0365 38.1003 43.0365 38.3555C43.0365 38.6107 42.9499 38.8249 42.7767 38.998C42.6081 39.1712 42.3734 39.2578 42.0726 39.2578C41.7764 39.2578 41.5417 39.1712 41.3685 38.998C41.1953 38.8249 41.1088 38.6107 41.1088 38.3555ZM46.7517 39.2783H47.7361C48.1189 39.2783 48.4356 39.2122 48.6862 39.0801C48.9415 38.9479 49.1306 38.7656 49.2536 38.5332C49.3767 38.3008 49.4382 38.0342 49.4382 37.7334C49.4382 37.4189 49.3812 37.1501 49.2673 36.9268C49.1579 36.6989 48.9893 36.5234 48.7614 36.4004C48.5381 36.2773 48.2533 36.2158 47.907 36.2158C47.6153 36.2158 47.351 36.2751 47.114 36.3936C46.8816 36.5075 46.697 36.6715 46.5603 36.8857C46.4236 37.0954 46.3552 37.346 46.3552 37.6377H44.7009C44.7009 37.109 44.8399 36.6396 45.1179 36.2295C45.3959 35.8193 45.7741 35.498 46.2527 35.2656C46.7357 35.0286 47.278 34.9102 47.8796 34.9102C48.5222 34.9102 49.0827 35.0173 49.5612 35.2314C50.0443 35.4411 50.4203 35.7555 50.6892 36.1748C50.9581 36.5941 51.0925 37.1136 51.0925 37.7334C51.0925 38.016 51.0264 38.3031 50.8943 38.5947C50.7621 38.8864 50.5661 39.153 50.3064 39.3945C50.0466 39.6315 49.723 39.8252 49.3357 39.9756C48.9483 40.1214 48.4994 40.1943 47.989 40.1943H46.7517V39.2783ZM46.7517 40.5635V39.6611H47.989C48.5723 39.6611 49.0691 39.7295 49.4792 39.8662C49.8939 40.0029 50.2312 40.1921 50.4909 40.4336C50.7507 40.6706 50.9398 40.9417 51.0583 41.2471C51.1814 41.5524 51.2429 41.876 51.2429 42.2178C51.2429 42.6826 51.1586 43.0973 50.99 43.4619C50.8259 43.8219 50.5912 44.1273 50.2859 44.3779C49.9805 44.6286 49.6228 44.8177 49.2126 44.9453C48.807 45.0729 48.365 45.1367 47.8864 45.1367C47.4581 45.1367 47.0479 45.0775 46.656 44.959C46.264 44.8405 45.9131 44.665 45.6032 44.4326C45.2933 44.1956 45.0473 43.9017 44.865 43.5508C44.6872 43.1953 44.5984 42.7852 44.5984 42.3203H46.2458C46.2458 42.6165 46.3142 42.8786 46.4509 43.1064C46.5922 43.3298 46.7881 43.5052 47.0388 43.6328C47.294 43.7604 47.5857 43.8242 47.9138 43.8242C48.2601 43.8242 48.5586 43.7627 48.8093 43.6396C49.0599 43.5166 49.2514 43.3343 49.3835 43.0928C49.5202 42.8512 49.5886 42.5596 49.5886 42.2178C49.5886 41.8304 49.5134 41.516 49.363 41.2744C49.2126 41.0329 48.9984 40.8551 48.7204 40.7412C48.4424 40.6227 48.1143 40.5635 47.7361 40.5635H46.7517ZM59.5382 39.1895V40.8164C59.5382 41.5957 59.4607 42.2611 59.3057 42.8125C59.1554 43.3594 58.9366 43.8037 58.6495 44.1455C58.3624 44.4873 58.0183 44.738 57.6173 44.8975C57.2208 45.057 56.7764 45.1367 56.2843 45.1367C55.8923 45.1367 55.5277 45.0866 55.1905 44.9863C54.8578 44.8861 54.557 44.7288 54.2882 44.5146C54.0193 44.3005 53.7891 44.0247 53.5977 43.6875C53.4109 43.3457 53.2651 42.9378 53.1602 42.4639C53.06 41.9899 53.0098 41.4408 53.0098 40.8164V39.1895C53.0098 38.4056 53.0873 37.7448 53.2423 37.207C53.3972 36.6647 53.6182 36.2249 53.9054 35.8877C54.1925 35.5459 54.5343 35.2975 54.9307 35.1426C55.3318 34.9876 55.7784 34.9102 56.2706 34.9102C56.6671 34.9102 57.0317 34.9603 57.3643 35.0605C57.7016 35.1562 58.0024 35.3089 58.2667 35.5186C58.5356 35.7282 58.7634 36.0016 58.9503 36.3389C59.1417 36.6715 59.2875 37.0749 59.3878 37.5488C59.488 38.0182 59.5382 38.5651 59.5382 39.1895ZM57.8907 41.0488V38.9434C57.8907 38.5469 57.8679 38.1982 57.8223 37.8975C57.7768 37.5921 57.7084 37.3346 57.6173 37.125C57.5307 36.9108 57.4213 36.7376 57.2891 36.6055C57.157 36.4688 57.0066 36.3708 56.838 36.3115C56.6693 36.2477 56.4802 36.2158 56.2706 36.2158C56.0154 36.2158 55.7875 36.266 55.587 36.3662C55.3865 36.4619 55.2179 36.6169 55.0811 36.8311C54.9444 37.0452 54.8396 37.3278 54.7667 37.6787C54.6983 38.0251 54.6641 38.4466 54.6641 38.9434V41.0488C54.6641 41.4499 54.6869 41.8031 54.7325 42.1084C54.7781 42.4137 54.8464 42.6758 54.9376 42.8945C55.0287 43.1087 55.1381 43.2865 55.2657 43.4277C55.3979 43.5645 55.5483 43.6647 55.7169 43.7285C55.8901 43.7923 56.0792 43.8242 56.2843 43.8242C56.544 43.8242 56.7742 43.7741 56.9747 43.6738C57.1752 43.5736 57.3438 43.4141 57.4805 43.1953C57.6173 42.972 57.7198 42.6826 57.7882 42.3271C57.8565 41.9717 57.8907 41.5456 57.8907 41.0488Z" fill="#1D1B20"/>
<path opacity="0.1" d="M358.5 34.4166C355.1 34.4166 352.125 35.9041 350 38.2416L358.5 48.5833L367 38.2416C364.875 35.9041 361.9 34.4166 358.5 34.4166Z" fill="#1D1B20"/>
<path d="M381.584 34.4166L367.417 48.5833H381.584V34.4166Z" fill="#1D1B20"/>
<path opacity="0.3" d="M393.5 34H390.5V35.5H389C388.448 35.5 388 36.0037 388 36.625V47.875C388 48.4963 388.448 49 389 49H395C395.552 49 396 48.4963 396 47.875V36.625C396 36.0037 395.552 35.5 395 35.5H393.5V34Z" fill="#1D1B20"/>
<path d="M388 42C388 42.5833 388 47.3667 388 47.95C388 48.5299 388.448 49 389 49H395C395.552 49 396 48.5299 396 47.95C396 47.3667 396 42.5833 396 42H388Z" fill="#1D1B20"/>
<path fill-rule="evenodd" clip-rule="evenodd" d="M214 26C207.373 26 202 31.3731 202 38C202 44.6269 207.373 50 214 50C220.627 50 226 44.6269 226 38C226 31.3731 220.627 26 214 26Z" fill="#1D1B20"/>
<rect width="412" height="64" transform="translate(8 60)" fill="#2AE881"/>
<path d="M172.711 82.3594H174.72L179.844 95.1104L184.957 82.3594H186.977L180.617 98H179.049L172.711 82.3594ZM172.056 82.3594H173.828L174.118 91.8984V98H172.056V82.3594ZM185.849 82.3594H187.621V98H185.559V91.8984L185.849 82.3594ZM190.436 92.3174V92.0703C190.436 91.2324 190.557 90.4554 190.801 89.7393C191.044 89.016 191.395 88.3893 191.854 87.8594C192.312 87.3223 192.867 86.9069 193.519 86.6133C194.17 86.3125 194.901 86.1621 195.71 86.1621C196.526 86.1621 197.26 86.3125 197.912 86.6133C198.571 86.9069 199.13 87.3223 199.588 87.8594C200.053 88.3893 200.408 89.016 200.651 89.7393C200.895 90.4554 201.017 91.2324 201.017 92.0703V92.3174C201.017 93.1553 200.895 93.9323 200.651 94.6484C200.408 95.3646 200.053 95.9912 199.588 96.5283C199.13 97.0583 198.575 97.4736 197.923 97.7744C197.278 98.068 196.548 98.2148 195.731 98.2148C194.915 98.2148 194.181 98.068 193.529 97.7744C192.878 97.4736 192.319 97.0583 191.854 96.5283C191.395 95.9912 191.044 95.3646 190.801 94.6484C190.557 93.9323 190.436 93.1553 190.436 92.3174ZM192.423 92.0703V92.3174C192.423 92.8975 192.491 93.4453 192.627 93.9609C192.763 94.4694 192.967 94.9206 193.239 95.3145C193.519 95.7083 193.866 96.0199 194.281 96.249C194.697 96.471 195.18 96.582 195.731 96.582C196.276 96.582 196.752 96.471 197.16 96.249C197.576 96.0199 197.919 95.7083 198.191 95.3145C198.464 94.9206 198.668 94.4694 198.804 93.9609C198.947 93.4453 199.019 92.8975 199.019 92.3174V92.0703C199.019 91.4974 198.947 90.9567 198.804 90.4482C198.668 89.9326 198.46 89.4779 198.181 89.084C197.909 88.6829 197.565 88.3678 197.149 88.1387C196.741 87.9095 196.261 87.7949 195.71 87.7949C195.166 87.7949 194.686 87.9095 194.271 88.1387C193.862 88.3678 193.519 88.6829 193.239 89.084C192.967 89.4779 192.763 89.9326 192.627 90.4482C192.491 90.9567 192.423 91.4974 192.423 92.0703ZM205.657 94.8525L211.018 86.377H213.016V98H211.018V89.5244L205.657 98H203.681V86.377H205.657V94.8525ZM209.933 82.166H211.544C211.544 82.7246 211.415 83.2223 211.157 83.6592C210.899 84.0889 210.531 84.4255 210.051 84.6689C209.571 84.9124 209.002 85.0342 208.343 85.0342C207.347 85.0342 206.56 84.7692 205.979 84.2393C205.407 83.7021 205.12 83.0111 205.12 82.166H206.731C206.731 82.5885 206.853 82.9609 207.097 83.2832C207.34 83.6055 207.756 83.7666 208.343 83.7666C208.916 83.7666 209.324 83.6055 209.567 83.2832C209.811 82.9609 209.933 82.5885 209.933 82.166ZM226.314 96.582C226.787 96.582 227.224 96.4854 227.625 96.292C228.026 96.0986 228.355 95.8337 228.613 95.4971C228.871 95.1533 229.018 94.763 229.054 94.3262H230.944C230.909 95.0137 230.676 95.6546 230.246 96.249C229.824 96.8363 229.269 97.3125 228.581 97.6777C227.894 98.0358 227.138 98.2148 226.314 98.2148C225.441 98.2148 224.678 98.0609 224.026 97.7529C223.382 97.445 222.845 97.0225 222.415 96.4854C221.993 95.9482 221.674 95.3324 221.459 94.6377C221.251 93.9359 221.147 93.1947 221.147 92.4141V91.9629C221.147 91.1823 221.251 90.4447 221.459 89.75C221.674 89.0482 221.993 88.4287 222.415 87.8916C222.845 87.3545 223.382 86.932 224.026 86.624C224.678 86.3161 225.441 86.1621 226.314 86.1621C227.224 86.1621 228.019 86.3483 228.699 86.7207C229.38 87.0859 229.913 87.5872 230.3 88.2246C230.694 88.8548 230.909 89.571 230.944 90.373H229.054C229.018 89.8932 228.882 89.46 228.646 89.0732C228.416 88.6865 228.101 88.3786 227.7 88.1494C227.306 87.9131 226.844 87.7949 226.314 87.7949C225.706 87.7949 225.194 87.9167 224.778 88.1602C224.37 88.3965 224.044 88.7188 223.801 89.127C223.564 89.528 223.393 89.9756 223.285 90.4697C223.185 90.9567 223.135 91.4544 223.135 91.9629V92.4141C223.135 92.9225 223.185 93.4238 223.285 93.918C223.385 94.4121 223.554 94.8597 223.79 95.2607C224.034 95.6618 224.359 95.984 224.768 96.2275C225.183 96.4639 225.699 96.582 226.314 96.582ZM241.944 86.377V98H239.957V86.377H241.944ZM241.268 91.7158V93.3486C240.867 93.499 240.458 93.6351 240.043 93.7568C239.635 93.8714 239.201 93.9645 238.743 94.0361C238.292 94.1006 237.801 94.1328 237.271 94.1328C236.355 94.1328 235.56 93.9753 234.887 93.6602C234.214 93.3379 233.694 92.8545 233.329 92.21C232.964 91.5583 232.781 90.7383 232.781 89.75V86.3555H234.769V89.75C234.769 90.3945 234.865 90.9173 235.059 91.3184C235.252 91.7194 235.535 92.0166 235.907 92.21C236.28 92.3962 236.734 92.4893 237.271 92.4893C237.787 92.4893 238.271 92.457 238.722 92.3926C239.18 92.321 239.617 92.2279 240.032 92.1133C240.455 91.9987 240.867 91.8662 241.268 91.7158ZM249.969 98.2148C249.16 98.2148 248.425 98.0788 247.767 97.8066C247.115 97.5273 246.553 97.137 246.08 96.6357C245.615 96.1344 245.257 95.54 245.006 94.8525C244.755 94.165 244.63 93.4131 244.63 92.5967V92.1455C244.63 91.2002 244.77 90.3587 245.049 89.6211C245.328 88.8763 245.708 88.2461 246.188 87.7305C246.667 87.2148 247.212 86.8245 247.82 86.5596C248.429 86.2946 249.059 86.1621 249.711 86.1621C250.542 86.1621 251.258 86.3053 251.859 86.5918C252.468 86.8783 252.966 87.2793 253.353 87.7949C253.739 88.3034 254.026 88.9049 254.212 89.5996C254.398 90.2871 254.491 91.0391 254.491 91.8555V92.7471H245.812V91.125H252.504V90.9746C252.475 90.459 252.368 89.9577 252.182 89.4707C252.003 88.9837 251.716 88.5827 251.322 88.2676C250.928 87.9525 250.391 87.7949 249.711 87.7949C249.26 87.7949 248.844 87.8916 248.465 88.085C248.085 88.2712 247.759 88.5505 247.487 88.9229C247.215 89.2952 247.004 89.75 246.854 90.2871C246.703 90.8242 246.628 91.4437 246.628 92.1455V92.5967C246.628 93.1481 246.703 93.6673 246.854 94.1543C247.011 94.6341 247.237 95.0566 247.53 95.4219C247.831 95.7871 248.193 96.0736 248.615 96.2812C249.045 96.4889 249.532 96.5928 250.076 96.5928C250.778 96.5928 251.372 96.4495 251.859 96.1631C252.346 95.8766 252.772 95.4935 253.138 95.0137L254.341 95.9697C254.09 96.3493 253.771 96.7109 253.385 97.0547C252.998 97.3984 252.522 97.6777 251.956 97.8926C251.397 98.1074 250.735 98.2148 249.969 98.2148ZM261.42 86.377V98H259.422V86.377H261.42ZM265.319 86.377V87.9883H255.598V86.377H265.319Z" fill="#1D1B20"/>
<g clip-path="url(#clip1_141_42853)">
<path d="M385 99H386.425L396.2 89.225L394.775 87.8L385 97.575V99ZM383 101V96.75L396.2 83.575C396.4 83.3917 396.621 83.25 396.863 83.15C397.104 83.05 397.358 83 397.625 83C397.892 83 398.15 83.05 398.4 83.15C398.65 83.25 398.867 83.4 399.05 83.6L400.425 85C400.625 85.1833 400.771 85.4 400.863 85.65C400.954 85.9 401 86.15 401 86.4C401 86.6667 400.954 86.9208 400.863 87.1625C400.771 87.4042 400.625 87.625 400.425 87.825L387.25 101H383ZM395.475 88.525L394.775 87.8L396.2 89.225L395.475 88.525Z" fill="#49454F"/>
</g>
<rect width="412" height="57.0001" transform="translate(8 124)" fill="#D4FAE6"/>
<rect x="24" y="140" width="24" height="24" rx="12" fill="white"/>
<path d="M43.8198 154.252C43.5227 153.717 43.1636 153.212 42.7894 152.727C42.2403 152.012 41.6536 151.326 41.1516 150.579C40.6495 149.835 40.2697 149.05 39.6285 148.398C39.0512 147.792 38.3216 147.384 37.5525 147.208C37.2629 147.104 36.9959 146.929 36.8041 146.743H36.9V145.993H36.7571C36.759 145.805 36.7797 145.745 36.8229 145.637C37.1144 144.801 37.3814 143.971 37.6729 143.135C37.7406 142.932 37.8064 142.742 37.9418 142.584C38.0978 142.381 38.3442 142.24 38.5228 142.037C38.7014 141.833 38.7691 141.491 38.5454 141.311C38.1655 141.243 37.7631 141.286 37.404 141.446C37.5149 141.243 37.3814 140.97 37.1802 140.858C36.979 140.745 36.7327 140.745 36.5089 140.745C35.9711 140.745 35.4127 140.767 34.8767 140.767C34.6304 140.767 34.339 140.79 34.1829 140.97C34.0926 141.061 34.0719 141.173 33.9817 141.264C33.7354 141.535 33.3104 141.444 32.9531 141.377C32.5958 141.309 32.1257 141.354 32.0129 141.715C31.9904 141.85 32.0129 141.963 32.0355 142.099C32.3269 143.274 32.8572 144.584 33.5718 145.555C33.6865 145.745 33.6959 145.803 33.7654 145.991H33.7034V146.657C33.7034 146.758 33.2991 146.935 33.2239 146.976C32.3382 147.46 31.5353 148.264 30.8264 148.971C30.0761 149.718 29.3917 150.528 28.7787 151.391C27.767 152.815 26.6952 154.487 26.5767 156.267C26.5128 157.213 26.7197 158.204 27.1992 159.026C27.7501 159.97 28.6057 160.76 29.4443 161.45C30.2811 162.138 31.2589 162.659 32.2987 162.965C32.31 162.969 32.3194 162.971 32.3307 162.975C34.5496 163.623 37.1031 163.225 39.2298 162.405C40.6627 161.852 41.9319 161.013 43.0357 159.947C43.5961 159.406 44.0793 158.77 44.3463 158.039C44.8127 156.743 44.4704 155.419 43.8198 154.252Z" fill="url(#paint0_linear_141_42853)"/>
<path opacity="0.2" d="M36.5089 141.309C36.6255 141.309 36.7646 141.309 36.8511 141.331C36.8154 141.506 36.8624 141.692 36.9884 141.828C37.0975 141.946 37.2498 142.01 37.404 142.01C37.4811 142.01 37.5582 141.995 37.6315 141.961C37.7011 141.931 37.7744 141.907 37.8477 141.888C37.733 141.982 37.6089 142.091 37.5018 142.228C37.3118 142.458 37.2197 142.704 37.1388 142.949C36.9922 143.37 36.8493 143.795 36.712 144.207C36.5766 144.611 36.4356 145.03 36.2927 145.44C36.2269 145.607 36.1949 145.735 36.193 145.985C36.1911 146.126 36.2419 146.264 36.3359 146.367V146.425C36.3152 146.457 36.2964 146.491 36.2814 146.529C36.1949 146.741 36.2457 146.984 36.4093 147.146C36.6706 147.401 37.0091 147.612 37.3626 147.738C37.3833 147.745 37.4059 147.751 37.4265 147.757C38.1072 147.913 38.7278 148.268 39.2261 148.791C39.6303 149.203 39.9274 149.688 40.2433 150.199C40.3825 150.427 40.5273 150.66 40.6834 150.893C41.0425 151.425 41.4411 151.929 41.8266 152.414C41.9977 152.629 42.1726 152.851 42.3418 153.071C42.7706 153.629 43.0846 154.092 43.3272 154.526C44.006 155.746 44.1696 156.863 43.8123 157.847C43.6017 158.424 43.2087 158.996 42.6408 159.543C41.5615 160.585 40.3449 161.371 39.023 161.88C37.5732 162.439 36.0839 162.736 34.7169 162.736C33.9196 162.736 33.1694 162.634 32.4868 162.435L32.4567 162.426C31.4977 162.143 30.5782 161.656 29.7997 161.015C29.0494 160.398 28.2108 159.644 27.6843 158.744C27.2744 158.04 27.0807 157.176 27.139 156.307C27.2443 154.723 28.2108 153.167 29.2375 151.719C29.8317 150.884 30.4992 150.094 31.2232 149.372L31.2382 149.357C31.917 148.68 32.6861 147.913 33.4928 147.473C33.5022 147.467 33.5172 147.46 33.536 147.452C33.8613 147.292 34.2675 147.093 34.2675 146.659V146.251C34.339 146.111 34.3502 145.948 34.2957 145.799C34.2844 145.765 34.2731 145.737 34.2637 145.711C34.2111 145.56 34.1716 145.459 34.0531 145.265C34.0437 145.25 34.0343 145.237 34.0249 145.224C33.4176 144.4 32.8948 143.221 32.5864 141.988L32.5846 141.98C32.5808 141.959 32.577 141.941 32.5752 141.924C32.6015 141.92 32.6334 141.916 32.6729 141.916C32.7275 141.916 32.7876 141.922 32.8459 141.933L32.8779 141.939C33.0622 141.975 33.2709 142.014 33.489 142.014C33.8651 142.014 34.1678 141.894 34.3897 141.655C34.4837 141.557 34.5383 141.457 34.574 141.392C34.5796 141.382 34.5853 141.371 34.5909 141.362C34.6191 141.352 34.6925 141.333 34.8749 141.333C35.1494 141.333 35.4315 141.328 35.7022 141.322C35.9711 141.315 36.2457 141.309 36.5089 141.309ZM36.5089 140.745C35.9711 140.745 35.4127 140.767 34.8767 140.767C34.6304 140.767 34.339 140.79 34.1829 140.97C34.0926 141.061 34.0719 141.173 33.9817 141.264C33.8538 141.405 33.6789 141.448 33.4909 141.448C33.3141 141.448 33.1261 141.41 32.9531 141.377C32.8647 141.36 32.7707 141.35 32.6767 141.35C32.3871 141.35 32.0994 141.442 32.0148 141.715C31.9922 141.85 32.0148 141.963 32.0374 142.099C32.3288 143.274 32.8591 144.584 33.5736 145.555C33.6883 145.745 33.6977 145.803 33.7673 145.991H33.7034V146.657C33.7034 146.758 33.2991 146.935 33.2239 146.976C32.3382 147.46 31.5353 148.264 30.8264 148.971C30.0761 149.718 29.3917 150.528 28.7787 151.391C27.767 152.815 26.6952 154.488 26.5767 156.267C26.5128 157.213 26.7197 158.204 27.1992 159.026C27.7501 159.97 28.6057 160.76 29.4443 161.45C30.2811 162.138 31.2589 162.659 32.2987 162.965C32.31 162.969 32.3194 162.971 32.3307 162.975C33.0979 163.198 33.9046 163.298 34.7207 163.298C36.2645 163.298 37.8383 162.943 39.2298 162.405C40.6627 161.852 41.9319 161.013 43.0357 159.947C43.5961 159.406 44.0793 158.77 44.3463 158.039C44.8183 156.741 44.4742 155.417 43.8236 154.25C43.5265 153.716 43.1673 153.21 42.7931 152.725C42.2441 152.01 41.6574 151.324 41.1553 150.577C40.6533 149.833 40.2734 149.049 39.6322 148.396C39.0549 147.791 38.3254 147.382 37.5563 147.206C37.2667 147.102 36.9997 146.927 36.8079 146.741H36.9V145.991H36.7571C36.759 145.803 36.7797 145.743 36.8229 145.636C37.1144 144.799 37.3814 143.97 37.6729 143.133C37.7406 142.93 37.8064 142.74 37.9418 142.582C38.0978 142.379 38.3442 142.238 38.5228 142.035C38.7014 141.832 38.7691 141.489 38.5454 141.309C38.4307 141.288 38.3141 141.279 38.1956 141.279C37.9248 141.279 37.6541 141.333 37.404 141.444C37.5149 141.241 37.3814 140.969 37.1802 140.856C36.979 140.745 36.7327 140.745 36.5089 140.745Z" fill="#424242"/>
<path opacity="0.2" d="M35.8033 146.597C35.2317 145.889 35.6435 145.805 35.4385 145.177C35.258 144.622 34.9026 144.079 34.3667 143.56C34.3535 143.618 34.4344 143.864 34.4419 143.923C34.5773 144.492 34.3366 145.049 34.581 145.626C34.7785 146.091 35.226 146.322 35.7337 146.766C35.76 146.709 35.8559 146.662 35.8033 146.597Z" fill="#212121"/>
<path d="M36.9494 146.89H33.623C33.3447 146.89 33.1172 146.662 33.1172 146.384C33.1172 146.106 33.3447 145.878 33.623 145.878H36.9494C37.2277 145.878 37.4552 146.106 37.4552 146.384C37.4552 146.662 37.2277 146.89 36.9494 146.89Z" fill="#6D4C41"/>
<path opacity="0.2" d="M36.9494 146.066C37.1243 146.066 37.2672 146.209 37.2672 146.384C37.2672 146.559 37.1243 146.702 36.9494 146.702H33.623C33.4481 146.702 33.3052 146.559 33.3052 146.384C33.3052 146.209 33.4481 146.066 33.623 146.066H36.9494ZM36.9494 145.878H33.623C33.3447 145.878 33.1172 146.106 33.1172 146.384C33.1172 146.662 33.3447 146.89 33.623 146.89H36.9494C37.2277 146.89 37.4552 146.662 37.4552 146.384C37.4552 146.106 37.2277 145.878 36.9494 145.878Z" fill="#424242"/>
<path d="M38.1018 157.433C38.1018 157.004 38.0191 156.632 37.8574 156.312C37.6938 155.993 37.4399 155.714 37.0939 155.474C36.7818 155.257 36.3587 155.056 35.8266 154.872L35.8623 151.811C36.1161 151.888 36.3286 152.035 36.5035 152.251C36.7348 152.538 36.8683 152.871 36.9003 153.332C36.9097 153.464 37.0131 153.528 37.1466 153.528H37.7709C37.91 153.528 38.0247 153.454 38.0172 153.317C37.9815 152.608 37.8386 152.061 37.5001 151.634C37.1221 151.158 36.5242 150.895 35.9601 150.803V149.752C35.9601 149.596 35.7476 149.393 35.5915 149.393H35.2512C35.097 149.391 35.0199 149.596 35.0199 149.75V150.521L34.9917 150.795C34.3185 150.876 33.7769 151.128 33.3933 151.551C33.0079 151.974 32.8085 152.518 32.8085 153.18C32.8085 153.83 33.0022 154.366 33.3952 154.787C33.7318 155.148 34.2376 155.449 34.9146 155.694L34.8788 158.834C34.5272 158.776 34.2433 158.635 34.0252 158.413C33.7694 158.151 33.6246 157.783 33.5908 157.328C33.5814 157.202 33.4723 157.098 33.3463 157.098H32.7164C32.5773 157.098 32.4626 157.222 32.4701 157.362C32.5114 158.042 32.7032 158.595 33.0831 159.011C33.5099 159.477 34.0778 159.748 34.83 159.817V160.694C34.83 160.85 34.9917 161.049 35.1477 161.049H35.4824C35.6385 161.049 35.772 160.85 35.772 160.694V160.075V159.819C36.5091 159.742 37.0808 159.496 37.4907 159.08C37.8987 158.665 38.1018 158.116 38.1018 157.433ZM34.326 154.146C34.0571 153.902 33.9236 153.573 33.9236 153.161C33.9236 152.715 34.0515 152.369 34.3053 152.121C34.4727 151.957 34.6908 151.848 34.9578 151.792L34.9259 154.528C34.6739 154.408 34.4727 154.28 34.326 154.146ZM36.5279 158.486C36.3286 158.653 36.0785 158.766 35.7795 158.823L35.8134 156.023C36.1537 156.173 36.4151 156.335 36.5919 156.506C36.8514 156.76 36.983 157.074 36.983 157.444C36.9811 157.884 36.8307 158.232 36.5279 158.486Z" fill="url(#paint1_linear_141_42853)"/>
<path d="M72.2578 145.625V146.859H66.7734V157H65.2734V145.625H72.2578ZM66.4219 150.258H69.5234C70.3568 150.258 71.0599 150.398 71.6328 150.68C72.2057 150.956 72.6406 151.344 72.9375 151.844C73.2344 152.344 73.3828 152.93 73.3828 153.602C73.3828 154.102 73.2995 154.56 73.1328 154.977C72.9661 155.388 72.7188 155.747 72.3906 156.055C72.0625 156.357 71.6589 156.591 71.1797 156.758C70.7005 156.919 70.1484 157 69.5234 157H65.2734V145.625H66.7812V155.773H69.5234C70.0807 155.773 70.5312 155.672 70.875 155.469C71.224 155.26 71.4792 154.99 71.6406 154.656C71.8021 154.323 71.8828 153.966 71.8828 153.586C71.8828 153.206 71.8021 152.857 71.6406 152.539C71.4792 152.221 71.224 151.969 70.875 151.781C70.5312 151.589 70.0807 151.492 69.5234 151.492H66.4219V150.258ZM80.6797 155.555V151.203C80.6797 150.87 80.612 150.581 80.4766 150.336C80.3464 150.086 80.1484 149.893 79.8828 149.758C79.6172 149.622 79.2891 149.555 78.8984 149.555C78.5339 149.555 78.2135 149.617 77.9375 149.742C77.6667 149.867 77.4531 150.031 77.2969 150.234C77.1458 150.438 77.0703 150.656 77.0703 150.891H75.625C75.625 150.589 75.7031 150.289 75.8594 149.992C76.0156 149.695 76.2396 149.427 76.5312 149.188C76.8281 148.943 77.1823 148.75 77.5938 148.609C78.0104 148.464 78.474 148.391 78.9844 148.391C79.599 148.391 80.1406 148.495 80.6094 148.703C81.0833 148.911 81.4531 149.227 81.7188 149.648C81.9896 150.065 82.125 150.589 82.125 151.219V155.156C82.125 155.438 82.1484 155.737 82.1953 156.055C82.2474 156.372 82.3229 156.646 82.4219 156.875V157H80.9141C80.8411 156.833 80.7839 156.612 80.7422 156.336C80.7005 156.055 80.6797 155.794 80.6797 155.555ZM80.9297 151.875L80.9453 152.891H79.4844C79.0729 152.891 78.7057 152.924 78.3828 152.992C78.0599 153.055 77.7891 153.151 77.5703 153.281C77.3516 153.411 77.1849 153.576 77.0703 153.773C76.9557 153.966 76.8984 154.193 76.8984 154.453C76.8984 154.719 76.9583 154.961 77.0781 155.18C77.1979 155.398 77.3776 155.573 77.6172 155.703C77.862 155.828 78.1615 155.891 78.5156 155.891C78.9583 155.891 79.349 155.797 79.6875 155.609C80.026 155.422 80.2943 155.193 80.4922 154.922C80.6953 154.651 80.8047 154.388 80.8203 154.133L81.4375 154.828C81.401 155.047 81.3021 155.289 81.1406 155.555C80.9792 155.82 80.763 156.076 80.4922 156.32C80.2266 156.56 79.9089 156.76 79.5391 156.922C79.1745 157.078 78.763 157.156 78.3047 157.156C77.7318 157.156 77.2292 157.044 76.7969 156.82C76.3698 156.596 76.0365 156.297 75.7969 155.922C75.5625 155.542 75.4453 155.117 75.4453 154.648C75.4453 154.195 75.5339 153.797 75.7109 153.453C75.888 153.104 76.1432 152.815 76.4766 152.586C76.8099 152.352 77.2109 152.174 77.6797 152.055C78.1484 151.935 78.6719 151.875 79.25 151.875H80.9297ZM90.5469 148.547V149.742H86.4609V148.547H90.5469ZM91.8203 148.547V157H90.375V148.547H91.8203ZM86.1094 148.547H87.5625L87.3438 152.625C87.3073 153.255 87.2474 153.812 87.1641 154.297C87.0859 154.776 86.9766 155.188 86.8359 155.531C86.7005 155.875 86.5286 156.156 86.3203 156.375C86.1172 156.589 85.8724 156.747 85.5859 156.852C85.2995 156.951 84.9688 157 84.5938 157H84.1406V155.727L84.4531 155.703C84.6771 155.688 84.8672 155.635 85.0234 155.547C85.1849 155.458 85.3203 155.328 85.4297 155.156C85.5391 154.979 85.6276 154.753 85.6953 154.477C85.7682 154.201 85.8229 153.872 85.8594 153.492C85.901 153.112 85.9323 152.669 85.9531 152.164L86.1094 148.547ZM99.6328 155.555V151.203C99.6328 150.87 99.5651 150.581 99.4297 150.336C99.2995 150.086 99.1016 149.893 98.8359 149.758C98.5703 149.622 98.2422 149.555 97.8516 149.555C97.487 149.555 97.1667 149.617 96.8906 149.742C96.6198 149.867 96.4062 150.031 96.25 150.234C96.099 150.438 96.0234 150.656 96.0234 150.891H94.5781C94.5781 150.589 94.6562 150.289 94.8125 149.992C94.9688 149.695 95.1927 149.427 95.4844 149.188C95.7812 148.943 96.1354 148.75 96.5469 148.609C96.9635 148.464 97.4271 148.391 97.9375 148.391C98.5521 148.391 99.0938 148.495 99.5625 148.703C100.036 148.911 100.406 149.227 100.672 149.648C100.943 150.065 101.078 150.589 101.078 151.219V155.156C101.078 155.438 101.102 155.737 101.148 156.055C101.201 156.372 101.276 156.646 101.375 156.875V157H99.8672C99.7943 156.833 99.737 156.612 99.6953 156.336C99.6536 156.055 99.6328 155.794 99.6328 155.555ZM99.8828 151.875L99.8984 152.891H98.4375C98.026 152.891 97.6589 152.924 97.3359 152.992C97.013 153.055 96.7422 153.151 96.5234 153.281C96.3047 153.411 96.138 153.576 96.0234 153.773C95.9089 153.966 95.8516 154.193 95.8516 154.453C95.8516 154.719 95.9115 154.961 96.0312 155.18C96.151 155.398 96.3307 155.573 96.5703 155.703C96.8151 155.828 97.1146 155.891 97.4688 155.891C97.9115 155.891 98.3021 155.797 98.6406 155.609C98.9792 155.422 99.2474 155.193 99.4453 154.922C99.6484 154.651 99.7578 154.388 99.7734 154.133L100.391 154.828C100.354 155.047 100.255 155.289 100.094 155.555C99.9323 155.82 99.7161 156.076 99.4453 156.32C99.1797 156.56 98.862 156.76 98.4922 156.922C98.1276 157.078 97.7161 157.156 97.2578 157.156C96.6849 157.156 96.1823 157.044 95.75 156.82C95.3229 156.596 94.9896 156.297 94.75 155.922C94.5156 155.542 94.3984 155.117 94.3984 154.648C94.3984 154.195 94.487 153.797 94.6641 153.453C94.8411 153.104 95.0964 152.815 95.4297 152.586C95.763 152.352 96.1641 152.174 96.6328 152.055C97.1016 151.935 97.625 151.875 98.2031 151.875H99.8828ZM109.586 152.211V153.383H105.117V152.211H109.586ZM105.422 148.547V157H103.977V148.547H105.422ZM110.758 148.547V157H109.305V148.547H110.758ZM116.969 155.969C117.312 155.969 117.63 155.898 117.922 155.758C118.214 155.617 118.453 155.424 118.641 155.18C118.828 154.93 118.935 154.646 118.961 154.328H120.336C120.31 154.828 120.141 155.294 119.828 155.727C119.521 156.154 119.117 156.5 118.617 156.766C118.117 157.026 117.568 157.156 116.969 157.156C116.333 157.156 115.779 157.044 115.305 156.82C114.836 156.596 114.445 156.289 114.133 155.898C113.826 155.508 113.594 155.06 113.438 154.555C113.286 154.044 113.211 153.505 113.211 152.938V152.609C113.211 152.042 113.286 151.505 113.438 151C113.594 150.49 113.826 150.039 114.133 149.648C114.445 149.258 114.836 148.951 115.305 148.727C115.779 148.503 116.333 148.391 116.969 148.391C117.63 148.391 118.208 148.526 118.703 148.797C119.198 149.062 119.586 149.427 119.867 149.891C120.154 150.349 120.31 150.87 120.336 151.453H118.961C118.935 151.104 118.836 150.789 118.664 150.508C118.497 150.227 118.268 150.003 117.977 149.836C117.69 149.664 117.354 149.578 116.969 149.578C116.526 149.578 116.154 149.667 115.852 149.844C115.555 150.016 115.318 150.25 115.141 150.547C114.969 150.839 114.844 151.164 114.766 151.523C114.693 151.878 114.656 152.24 114.656 152.609V152.938C114.656 153.307 114.693 153.672 114.766 154.031C114.839 154.391 114.961 154.716 115.133 155.008C115.31 155.299 115.547 155.534 115.844 155.711C116.146 155.883 116.521 155.969 116.969 155.969Z" fill="#1D1B20"/>
<path d="M286.125 151.57V152.758H282.312V151.57H286.125ZM293.43 145.609H293.555V146.836H293.43C292.664 146.836 292.023 146.961 291.508 147.211C290.992 147.456 290.583 147.786 290.281 148.203C289.979 148.615 289.76 149.078 289.625 149.594C289.495 150.109 289.43 150.633 289.43 151.164V152.836C289.43 153.341 289.49 153.789 289.609 154.18C289.729 154.565 289.893 154.891 290.102 155.156C290.31 155.422 290.544 155.622 290.805 155.758C291.07 155.893 291.346 155.961 291.633 155.961C291.966 155.961 292.263 155.898 292.523 155.773C292.784 155.643 293.003 155.464 293.18 155.234C293.362 155 293.5 154.724 293.594 154.406C293.688 154.089 293.734 153.74 293.734 153.359C293.734 153.021 293.693 152.695 293.609 152.383C293.526 152.065 293.398 151.784 293.227 151.539C293.055 151.289 292.839 151.094 292.578 150.953C292.323 150.807 292.018 150.734 291.664 150.734C291.263 150.734 290.888 150.833 290.539 151.031C290.195 151.224 289.911 151.479 289.688 151.797C289.469 152.109 289.344 152.451 289.312 152.82L288.547 152.812C288.62 152.229 288.755 151.732 288.953 151.32C289.156 150.904 289.406 150.565 289.703 150.305C290.005 150.039 290.341 149.846 290.711 149.727C291.086 149.602 291.482 149.539 291.898 149.539C292.466 149.539 292.956 149.646 293.367 149.859C293.779 150.073 294.117 150.359 294.383 150.719C294.648 151.073 294.844 151.474 294.969 151.922C295.099 152.365 295.164 152.82 295.164 153.289C295.164 153.826 295.089 154.328 294.938 154.797C294.786 155.266 294.56 155.677 294.258 156.031C293.961 156.385 293.594 156.661 293.156 156.859C292.719 157.057 292.211 157.156 291.633 157.156C291.018 157.156 290.482 157.031 290.023 156.781C289.565 156.526 289.185 156.188 288.883 155.766C288.581 155.344 288.354 154.875 288.203 154.359C288.052 153.844 287.977 153.32 287.977 152.789V152.109C287.977 151.307 288.057 150.521 288.219 149.75C288.38 148.979 288.659 148.281 289.055 147.656C289.456 147.031 290.01 146.534 290.719 146.164C291.427 145.794 292.331 145.609 293.43 145.609ZM304.734 145.625V146.438L300.023 157H298.5L303.203 146.812H297.047V145.625H304.734ZM314.023 150.406V152.141C314.023 153.073 313.94 153.859 313.773 154.5C313.607 155.141 313.367 155.656 313.055 156.047C312.742 156.438 312.365 156.721 311.922 156.898C311.484 157.07 310.99 157.156 310.438 157.156C310 157.156 309.596 157.102 309.227 156.992C308.857 156.883 308.523 156.708 308.227 156.469C307.935 156.224 307.685 155.906 307.477 155.516C307.268 155.125 307.109 154.651 307 154.094C306.891 153.536 306.836 152.885 306.836 152.141V150.406C306.836 149.474 306.919 148.693 307.086 148.062C307.258 147.432 307.5 146.927 307.812 146.547C308.125 146.161 308.5 145.885 308.938 145.719C309.38 145.552 309.875 145.469 310.422 145.469C310.865 145.469 311.271 145.523 311.641 145.633C312.016 145.737 312.349 145.906 312.641 146.141C312.932 146.37 313.18 146.677 313.383 147.062C313.591 147.443 313.75 147.909 313.859 148.461C313.969 149.013 314.023 149.661 314.023 150.406ZM312.57 152.375V150.164C312.57 149.654 312.539 149.206 312.477 148.82C312.419 148.43 312.333 148.096 312.219 147.82C312.104 147.544 311.958 147.32 311.781 147.148C311.609 146.977 311.409 146.852 311.18 146.773C310.956 146.69 310.703 146.648 310.422 146.648C310.078 146.648 309.773 146.714 309.508 146.844C309.242 146.969 309.018 147.169 308.836 147.445C308.659 147.721 308.523 148.083 308.43 148.531C308.336 148.979 308.289 149.523 308.289 150.164V152.375C308.289 152.885 308.318 153.336 308.375 153.727C308.438 154.117 308.529 154.456 308.648 154.742C308.768 155.023 308.914 155.255 309.086 155.438C309.258 155.62 309.456 155.755 309.68 155.844C309.909 155.927 310.161 155.969 310.438 155.969C310.792 155.969 311.102 155.901 311.367 155.766C311.633 155.63 311.854 155.419 312.031 155.133C312.214 154.841 312.349 154.469 312.438 154.016C312.526 153.557 312.57 153.01 312.57 152.375ZM327.992 150.406V152.141C327.992 153.073 327.909 153.859 327.742 154.5C327.576 155.141 327.336 155.656 327.023 156.047C326.711 156.438 326.333 156.721 325.891 156.898C325.453 157.07 324.958 157.156 324.406 157.156C323.969 157.156 323.565 157.102 323.195 156.992C322.826 156.883 322.492 156.708 322.195 156.469C321.904 156.224 321.654 155.906 321.445 155.516C321.237 155.125 321.078 154.651 320.969 154.094C320.859 153.536 320.805 152.885 320.805 152.141V150.406C320.805 149.474 320.888 148.693 321.055 148.062C321.227 147.432 321.469 146.927 321.781 146.547C322.094 146.161 322.469 145.885 322.906 145.719C323.349 145.552 323.844 145.469 324.391 145.469C324.833 145.469 325.24 145.523 325.609 145.633C325.984 145.737 326.318 145.906 326.609 146.141C326.901 146.37 327.148 146.677 327.352 147.062C327.56 147.443 327.719 147.909 327.828 148.461C327.938 149.013 327.992 149.661 327.992 150.406ZM326.539 152.375V150.164C326.539 149.654 326.508 149.206 326.445 148.82C326.388 148.43 326.302 148.096 326.188 147.82C326.073 147.544 325.927 147.32 325.75 147.148C325.578 146.977 325.378 146.852 325.148 146.773C324.924 146.69 324.672 146.648 324.391 146.648C324.047 146.648 323.742 146.714 323.477 146.844C323.211 146.969 322.987 147.169 322.805 147.445C322.628 147.721 322.492 148.083 322.398 148.531C322.305 148.979 322.258 149.523 322.258 150.164V152.375C322.258 152.885 322.286 153.336 322.344 153.727C322.406 154.117 322.497 154.456 322.617 154.742C322.737 155.023 322.883 155.255 323.055 155.438C323.227 155.62 323.424 155.755 323.648 155.844C323.878 155.927 324.13 155.969 324.406 155.969C324.76 155.969 325.07 155.901 325.336 155.766C325.602 155.63 325.823 155.419 326 155.133C326.182 154.841 326.318 154.469 326.406 154.016C326.495 153.557 326.539 153.01 326.539 152.375ZM337.492 150.406V152.141C337.492 153.073 337.409 153.859 337.242 154.5C337.076 155.141 336.836 155.656 336.523 156.047C336.211 156.438 335.833 156.721 335.391 156.898C334.953 157.07 334.458 157.156 333.906 157.156C333.469 157.156 333.065 157.102 332.695 156.992C332.326 156.883 331.992 156.708 331.695 156.469C331.404 156.224 331.154 155.906 330.945 155.516C330.737 155.125 330.578 154.651 330.469 154.094C330.359 153.536 330.305 152.885 330.305 152.141V150.406C330.305 149.474 330.388 148.693 330.555 148.062C330.727 147.432 330.969 146.927 331.281 146.547C331.594 146.161 331.969 145.885 332.406 145.719C332.849 145.552 333.344 145.469 333.891 145.469C334.333 145.469 334.74 145.523 335.109 145.633C335.484 145.737 335.818 145.906 336.109 146.141C336.401 146.37 336.648 146.677 336.852 147.062C337.06 147.443 337.219 147.909 337.328 148.461C337.438 149.013 337.492 149.661 337.492 150.406ZM336.039 152.375V150.164C336.039 149.654 336.008 149.206 335.945 148.82C335.888 148.43 335.802 148.096 335.688 147.82C335.573 147.544 335.427 147.32 335.25 147.148C335.078 146.977 334.878 146.852 334.648 146.773C334.424 146.69 334.172 146.648 333.891 146.648C333.547 146.648 333.242 146.714 332.977 146.844C332.711 146.969 332.487 147.169 332.305 147.445C332.128 147.721 331.992 148.083 331.898 148.531C331.805 148.979 331.758 149.523 331.758 150.164V152.375C331.758 152.885 331.786 153.336 331.844 153.727C331.906 154.117 331.997 154.456 332.117 154.742C332.237 155.023 332.383 155.255 332.555 155.438C332.727 155.62 332.924 155.755 333.148 155.844C333.378 155.927 333.63 155.969 333.906 155.969C334.26 155.969 334.57 155.901 334.836 155.766C335.102 155.63 335.323 155.419 335.5 155.133C335.682 154.841 335.818 154.469 335.906 154.016C335.995 153.557 336.039 153.01 336.039 152.375ZM346.992 150.406V152.141C346.992 153.073 346.909 153.859 346.742 154.5C346.576 155.141 346.336 155.656 346.023 156.047C345.711 156.438 345.333 156.721 344.891 156.898C344.453 157.07 343.958 157.156 343.406 157.156C342.969 157.156 342.565 157.102 342.195 156.992C341.826 156.883 341.492 156.708 341.195 156.469C340.904 156.224 340.654 155.906 340.445 155.516C340.237 155.125 340.078 154.651 339.969 154.094C339.859 153.536 339.805 152.885 339.805 152.141V150.406C339.805 149.474 339.888 148.693 340.055 148.062C340.227 147.432 340.469 146.927 340.781 146.547C341.094 146.161 341.469 145.885 341.906 145.719C342.349 145.552 342.844 145.469 343.391 145.469C343.833 145.469 344.24 145.523 344.609 145.633C344.984 145.737 345.318 145.906 345.609 146.141C345.901 146.37 346.148 146.677 346.352 147.062C346.56 147.443 346.719 147.909 346.828 148.461C346.938 149.013 346.992 149.661 346.992 150.406ZM345.539 152.375V150.164C345.539 149.654 345.508 149.206 345.445 148.82C345.388 148.43 345.302 148.096 345.188 147.82C345.073 147.544 344.927 147.32 344.75 147.148C344.578 146.977 344.378 146.852 344.148 146.773C343.924 146.69 343.672 146.648 343.391 146.648C343.047 146.648 342.742 146.714 342.477 146.844C342.211 146.969 341.987 147.169 341.805 147.445C341.628 147.721 341.492 148.083 341.398 148.531C341.305 148.979 341.258 149.523 341.258 150.164V152.375C341.258 152.885 341.286 153.336 341.344 153.727C341.406 154.117 341.497 154.456 341.617 154.742C341.737 155.023 341.883 155.255 342.055 155.438C342.227 155.62 342.424 155.755 342.648 155.844C342.878 155.927 343.13 155.969 343.406 155.969C343.76 155.969 344.07 155.901 344.336 155.766C344.602 155.63 344.823 155.419 345 155.133C345.182 154.841 345.318 154.469 345.406 154.016C345.495 153.557 345.539 153.01 345.539 152.375ZM358.938 152.539H353.117V151.312H358.938C359.505 151.312 359.971 151.221 360.336 151.039C360.701 150.857 360.969 150.599 361.141 150.266C361.318 149.932 361.406 149.539 361.406 149.086C361.406 148.716 361.323 148.362 361.156 148.023C360.995 147.685 360.732 147.406 360.367 147.188C360.008 146.969 359.531 146.859 358.938 146.859H356.234V157H354.734V145.625H358.938C359.797 145.625 360.521 145.773 361.109 146.07C361.698 146.362 362.143 146.768 362.445 147.289C362.753 147.805 362.906 148.398 362.906 149.07C362.906 149.799 362.753 150.424 362.445 150.945C362.143 151.461 361.698 151.857 361.109 152.133C360.521 152.404 359.797 152.539 358.938 152.539ZM358.844 153.609V154.844H353.117V153.609H358.844Z" fill="#1D1B20"/>
<path d="M396.35 152.007C396.35 152.151 396.322 152.284 396.267 152.405C396.211 152.527 396.125 152.646 396.009 152.762L391.037 157.685C390.854 157.867 390.633 157.958 390.373 157.958C390.102 157.958 389.872 157.867 389.684 157.685C389.496 157.496 389.402 157.27 389.402 157.004C389.402 156.738 389.504 156.503 389.709 156.298L394.067 152.007L389.709 147.715C389.504 147.511 389.402 147.275 389.402 147.01C389.402 146.744 389.496 146.52 389.684 146.337C389.872 146.149 390.102 146.055 390.373 146.055C390.633 146.055 390.854 146.146 391.037 146.329L396.009 151.251C396.236 151.467 396.35 151.719 396.35 152.007Z" fill="#3C3C43" fill-opacity="0.3"/>
<line x1="8" y1="180.5" x2="420" y2="180.5" stroke="#CAC4D0"/>
<rect width="412" height="56" transform="translate(8 181)" fill="#D4FAE6"/>
<path d="M29.375 208.68H26.4922L26.4766 207.469H29.0938C29.526 207.469 29.9036 207.396 30.2266 207.25C30.5495 207.104 30.7995 206.896 30.9766 206.625C31.1589 206.349 31.25 206.021 31.25 205.641C31.25 205.224 31.1693 204.886 31.0078 204.625C30.8516 204.359 30.6094 204.167 30.2812 204.047C29.9583 203.922 29.5469 203.859 29.0469 203.859H26.8281V214H25.3203V202.625H29.0469C29.6302 202.625 30.151 202.685 30.6094 202.805C31.0677 202.919 31.4557 203.102 31.7734 203.352C32.0964 203.596 32.3411 203.909 32.5078 204.289C32.6745 204.669 32.7578 205.125 32.7578 205.656C32.7578 206.125 32.638 206.55 32.3984 206.93C32.1589 207.305 31.8255 207.612 31.3984 207.852C30.9766 208.091 30.4818 208.245 29.9141 208.313L29.375 208.68ZM29.3047 214H25.8984L26.75 212.774H29.3047C29.7839 212.774 30.1901 212.69 30.5234 212.524C30.862 212.357 31.1198 212.123 31.2969 211.82C31.474 211.513 31.5625 211.151 31.5625 210.734C31.5625 210.313 31.487 209.948 31.3359 209.641C31.1849 209.333 30.9479 209.096 30.625 208.93C30.3021 208.763 29.8854 208.68 29.375 208.68H27.2266L27.2422 207.469H30.1797L30.5 207.906C31.0469 207.953 31.5104 208.109 31.8906 208.375C32.2708 208.636 32.5599 208.969 32.7578 209.375C32.9609 209.781 33.0625 210.229 33.0625 210.719C33.0625 211.427 32.9062 212.026 32.5938 212.516C32.2865 213 31.8516 213.37 31.2891 213.625C30.7266 213.875 30.0651 214 29.3047 214ZM40.5547 212.555V208.203C40.5547 207.87 40.487 207.581 40.3516 207.336C40.2214 207.086 40.0234 206.893 39.7578 206.758C39.4922 206.623 39.1641 206.555 38.7734 206.555C38.4089 206.555 38.0885 206.617 37.8125 206.742C37.5417 206.867 37.3281 207.031 37.1719 207.234C37.0208 207.438 36.9453 207.656 36.9453 207.891H35.5C35.5 207.589 35.5781 207.289 35.7344 206.992C35.8906 206.695 36.1146 206.427 36.4062 206.188C36.7031 205.943 37.0573 205.75 37.4688 205.609C37.8854 205.464 38.349 205.391 38.8594 205.391C39.474 205.391 40.0156 205.495 40.4844 205.703C40.9583 205.912 41.3281 206.227 41.5938 206.649C41.8646 207.065 42 207.589 42 208.219V212.156C42 212.438 42.0234 212.737 42.0703 213.055C42.1224 213.373 42.1979 213.646 42.2969 213.875V214H40.7891C40.7161 213.833 40.6589 213.612 40.6172 213.336C40.5755 213.055 40.5547 212.794 40.5547 212.555ZM40.8047 208.875L40.8203 209.891H39.3594C38.9479 209.891 38.5807 209.925 38.2578 209.992C37.9349 210.055 37.6641 210.151 37.4453 210.281C37.2266 210.412 37.0599 210.576 36.9453 210.774C36.8307 210.966 36.7734 211.193 36.7734 211.453C36.7734 211.719 36.8333 211.961 36.9531 212.18C37.0729 212.399 37.2526 212.573 37.4922 212.703C37.737 212.828 38.0365 212.891 38.3906 212.891C38.8333 212.891 39.224 212.797 39.5625 212.609C39.901 212.422 40.1693 212.193 40.3672 211.922C40.5703 211.651 40.6797 211.388 40.6953 211.133L41.3125 211.828C41.276 212.047 41.1771 212.289 41.0156 212.555C40.8542 212.82 40.638 213.076 40.3672 213.32C40.1016 213.56 39.7839 213.761 39.4141 213.922C39.0495 214.078 38.638 214.156 38.1797 214.156C37.6068 214.156 37.1042 214.044 36.6719 213.82C36.2448 213.596 35.9115 213.297 35.6719 212.922C35.4375 212.542 35.3203 212.117 35.3203 211.649C35.3203 211.195 35.4089 210.797 35.5859 210.453C35.763 210.104 36.0182 209.815 36.3516 209.586C36.6849 209.352 37.0859 209.175 37.5547 209.055C38.0234 208.935 38.5469 208.875 39.125 208.875H40.8047ZM50.4219 205.547V206.742H46.3359V205.547H50.4219ZM51.6953 205.547V214H50.25V205.547H51.6953ZM45.9844 205.547H47.4375L47.2188 209.625C47.1823 210.255 47.1224 210.813 47.0391 211.297C46.9609 211.776 46.8516 212.188 46.7109 212.531C46.5755 212.875 46.4036 213.156 46.1953 213.375C45.9922 213.589 45.7474 213.748 45.4609 213.852C45.1745 213.951 44.8438 214 44.4688 214H44.0156V212.727L44.3281 212.703C44.5521 212.688 44.7422 212.636 44.8984 212.547C45.0599 212.458 45.1953 212.328 45.3047 212.156C45.4141 211.979 45.5026 211.753 45.5703 211.477C45.6432 211.201 45.6979 210.873 45.7344 210.492C45.776 210.112 45.8073 209.669 45.8281 209.164L45.9844 205.547ZM59.3359 209.133V210.313H54.8438V209.133H59.3359ZM56.1016 205.547V214H54.6562V205.547H56.1016ZM58.1016 209.867V209.688C58.1016 209.078 58.1901 208.513 58.3672 207.992C58.5443 207.466 58.7995 207.011 59.1328 206.625C59.4714 206.234 59.875 205.932 60.3438 205.719C60.8177 205.5 61.349 205.391 61.9375 205.391C62.5365 205.391 63.0729 205.5 63.5469 205.719C64.0208 205.932 64.4245 206.234 64.7578 206.625C65.0964 207.011 65.3542 207.466 65.5312 207.992C65.7083 208.513 65.7969 209.078 65.7969 209.688V209.867C65.7969 210.477 65.7083 211.042 65.5312 211.563C65.3542 212.083 65.099 212.539 64.7656 212.93C64.4323 213.315 64.0286 213.617 63.5547 213.836C63.0807 214.05 62.5469 214.156 61.9531 214.156C61.3594 214.156 60.8255 214.05 60.3516 213.836C59.8776 213.617 59.4714 213.315 59.1328 212.93C58.7995 212.539 58.5443 212.083 58.3672 211.563C58.1901 211.042 58.1016 210.477 58.1016 209.867ZM59.5547 209.688V209.867C59.5547 210.289 59.6042 210.688 59.7031 211.063C59.8021 211.432 59.9505 211.761 60.1484 212.047C60.3516 212.333 60.6016 212.56 60.8984 212.727C61.2005 212.888 61.5521 212.969 61.9531 212.969C62.3542 212.969 62.7031 212.888 63 212.727C63.3021 212.56 63.5521 212.333 63.75 212.047C63.9479 211.761 64.0964 211.432 64.1953 211.063C64.2995 210.688 64.3516 210.289 64.3516 209.867V209.688C64.3516 209.271 64.2995 208.878 64.1953 208.508C64.0964 208.133 63.9453 207.802 63.7422 207.516C63.5443 207.224 63.2943 206.995 62.9922 206.828C62.6901 206.662 62.3385 206.578 61.9375 206.578C61.5417 206.578 61.1953 206.662 60.8984 206.828C60.6016 206.995 60.3516 207.224 60.1484 207.516C59.9505 207.802 59.8021 208.133 59.7031 208.508C59.6042 208.878 59.5547 209.271 59.5547 209.688ZM71.5312 205.547V214H70.0781V205.547H71.5312ZM74.3672 205.547V206.719H67.2969V205.547H74.3672ZM81.1484 212.555V208.203C81.1484 207.87 81.0807 207.581 80.9453 207.336C80.8151 207.086 80.6172 206.893 80.3516 206.758C80.0859 206.623 79.7578 206.555 79.3672 206.555C79.0026 206.555 78.6823 206.617 78.4062 206.742C78.1354 206.867 77.9219 207.031 77.7656 207.234C77.6146 207.438 77.5391 207.656 77.5391 207.891H76.0938C76.0938 207.589 76.1719 207.289 76.3281 206.992C76.4844 206.695 76.7083 206.427 77 206.188C77.2969 205.943 77.651 205.75 78.0625 205.609C78.4792 205.464 78.9427 205.391 79.4531 205.391C80.0677 205.391 80.6094 205.495 81.0781 205.703C81.5521 205.912 81.9219 206.227 82.1875 206.649C82.4583 207.065 82.5938 207.589 82.5938 208.219V212.156C82.5938 212.438 82.6172 212.737 82.6641 213.055C82.7161 213.373 82.7917 213.646 82.8906 213.875V214H81.3828C81.3099 213.833 81.2526 213.612 81.2109 213.336C81.1693 213.055 81.1484 212.794 81.1484 212.555ZM81.3984 208.875L81.4141 209.891H79.9531C79.5417 209.891 79.1745 209.925 78.8516 209.992C78.5286 210.055 78.2578 210.151 78.0391 210.281C77.8203 210.412 77.6536 210.576 77.5391 210.774C77.4245 210.966 77.3672 211.193 77.3672 211.453C77.3672 211.719 77.4271 211.961 77.5469 212.18C77.6667 212.399 77.8464 212.573 78.0859 212.703C78.3307 212.828 78.6302 212.891 78.9844 212.891C79.4271 212.891 79.8177 212.797 80.1562 212.609C80.4948 212.422 80.763 212.193 80.9609 211.922C81.1641 211.651 81.2734 211.388 81.2891 211.133L81.9062 211.828C81.8698 212.047 81.7708 212.289 81.6094 212.555C81.4479 212.82 81.2318 213.076 80.9609 213.32C80.6953 213.56 80.3776 213.761 80.0078 213.922C79.6432 214.078 79.2318 214.156 78.7734 214.156C78.2005 214.156 77.6979 214.044 77.2656 213.82C76.8385 213.596 76.5052 213.297 76.2656 212.922C76.0312 212.542 75.9141 212.117 75.9141 211.649C75.9141 211.195 76.0026 210.797 76.1797 210.453C76.3568 210.104 76.612 209.815 76.9453 209.586C77.2786 209.352 77.6797 209.175 78.1484 209.055C78.6172 208.935 79.1406 208.875 79.7188 208.875H81.3984Z" fill="#1D1B20"/>
<path d="M358.938 209.539H353.117V208.313H358.938C359.505 208.313 359.971 208.221 360.336 208.039C360.701 207.857 360.969 207.599 361.141 207.266C361.318 206.932 361.406 206.539 361.406 206.086C361.406 205.716 361.323 205.362 361.156 205.024C360.995 204.685 360.732 204.406 360.367 204.188C360.008 203.969 359.531 203.859 358.938 203.859H356.234V214H354.734V202.625H358.938C359.797 202.625 360.521 202.774 361.109 203.07C361.698 203.362 362.143 203.768 362.445 204.289C362.753 204.805 362.906 205.399 362.906 206.07C362.906 206.8 362.753 207.425 362.445 207.945C362.143 208.461 361.698 208.857 361.109 209.133C360.521 209.404 359.797 209.539 358.938 209.539ZM358.844 210.609V211.844H353.117V210.609H358.844Z" fill="#1D1B20"/>
<path d="M396.35 209.007C396.35 209.151 396.322 209.284 396.267 209.405C396.211 209.527 396.125 209.646 396.009 209.762L391.037 214.685C390.854 214.867 390.633 214.959 390.373 214.959C390.102 214.959 389.872 214.867 389.684 214.685C389.496 214.497 389.402 214.27 389.402 214.004C389.402 213.738 389.504 213.503 389.709 213.298L394.067 209.007L389.709 204.715C389.504 204.511 389.402 204.276 389.402 204.01C389.402 203.744 389.496 203.52 389.684 203.338C389.872 203.149 390.102 203.055 390.373 203.055C390.633 203.055 390.854 203.147 391.037 203.329L396.009 208.252C396.236 208.467 396.35 208.719 396.35 209.007Z" fill="#3C3C43" fill-opacity="0.3"/>
<rect x="24" y="464" width="6" height="9" rx="3" fill="#FF5F00"/>
<rect x="37.8516" y="379.834" width="6" height="93.1662" rx="3" fill="#FF5F00"/>
<rect x="51.7041" y="449.017" width="6" height="23.9834" rx="3" fill="#FF5F00"/>
<rect x="65.5557" y="427.801" width="6" height="45.1994" rx="3" fill="#FF5F00"/>
<rect x="79.4072" y="403.817" width="6" height="69.1828" rx="3" fill="#FF5F00"/>
<rect x="93.2588" y="449.017" width="6" height="23.9834" rx="3" fill="#FF5F00"/>
<rect x="107.111" y="449.017" width="6" height="23.9834" rx="3" fill="#FF5F00"/>
<rect x="120.963" y="285" width="6" height="188" rx="3" fill="#FF5F00"/>
<rect x="134.814" y="416.731" width="6" height="56.2687" rx="3" fill="#FF5F00"/>
<rect x="148.667" y="366.92" width="6" height="106.08" rx="3" fill="#FF5F00"/>
<rect x="162.519" y="459.163" width="6" height="13.8366" rx="3" fill="#2AE881"/>
<rect x="176.37" y="459.163" width="6" height="13.8366" rx="3" fill="#2AE881"/>
<rect x="190.223" y="416.731" width="6" height="56.2687" rx="3" fill="#FF5F00"/>
<rect x="204.074" y="449.017" width="6" height="23.9834" rx="3" fill="#FF5F00"/>
<rect x="217.926" y="335.557" width="6" height="137.443" rx="3" fill="#FF5F00"/>
<rect x="231.777" y="449.017" width="6" height="23.9834" rx="3" fill="#FF5F00"/>
<rect x="245.63" y="449.017" width="6" height="23.9834" rx="3" fill="#FF5F00"/>
<rect x="259.481" y="433.335" width="6" height="39.6648" rx="3" fill="#FF5F00"/>
<rect x="273.333" y="459.163" width="6" height="13.8366" rx="3" fill="#2AE881"/>
<rect x="287.186" y="459.163" width="6" height="13.8366" rx="3" fill="#2AE881"/>
<rect x="301.037" y="459.163" width="6" height="13.8366" rx="3" fill="#2AE881"/>
<rect x="314.889" y="459.163" width="6" height="13.8366" rx="3" fill="#2AE881"/>
<rect x="328.741" y="459.163" width="6" height="13.8366" rx="3" fill="#2AE881"/>
<rect x="342.593" y="459.163" width="6" height="13.8366" rx="3" fill="#2AE881"/>
<rect x="356.444" y="449.017" width="6" height="23.9834" rx="3" fill="#FF5F00"/>
<rect x="370.297" y="449.017" width="6" height="23.9834" rx="3" fill="#FF5F00"/>
<rect x="384.148" y="449.017" width="6" height="23.9834" rx="3" fill="#FF5F00"/>
<rect x="398" y="449.017" width="6" height="23.9834" rx="3" fill="#FF5F00"/>
<path opacity="0.9" d="M381.101 484.332V485H376.913V484.416L379.009 482.082C379.267 481.795 379.467 481.552 379.607 481.353C379.751 481.15 379.85 480.97 379.906 480.812C379.965 480.651 379.994 480.487 379.994 480.32C379.994 480.109 379.95 479.918 379.862 479.749C379.777 479.576 379.651 479.438 379.484 479.335C379.317 479.233 379.115 479.182 378.878 479.182C378.593 479.182 378.356 479.237 378.166 479.349C377.978 479.457 377.838 479.609 377.744 479.806C377.65 480.002 377.603 480.228 377.603 480.482H376.79C376.79 480.122 376.869 479.792 377.028 479.494C377.186 479.195 377.42 478.958 377.731 478.782C378.041 478.603 378.424 478.514 378.878 478.514C379.282 478.514 379.628 478.585 379.915 478.729C380.202 478.87 380.422 479.069 380.574 479.327C380.729 479.582 380.807 479.88 380.807 480.223C380.807 480.411 380.775 480.601 380.71 480.794C380.649 480.985 380.562 481.175 380.451 481.366C380.343 481.556 380.215 481.744 380.069 481.928C379.925 482.113 379.771 482.294 379.607 482.473L377.893 484.332H381.101ZM386.006 483.269C386.006 483.658 385.915 483.989 385.733 484.262C385.554 484.531 385.311 484.736 385.004 484.877C384.699 485.018 384.355 485.088 383.971 485.088C383.587 485.088 383.241 485.018 382.934 484.877C382.626 484.736 382.383 484.531 382.204 484.262C382.026 483.989 381.936 483.658 381.936 483.269C381.936 483.014 381.985 482.781 382.081 482.57C382.181 482.356 382.32 482.17 382.499 482.012C382.68 481.854 382.894 481.732 383.14 481.647C383.389 481.559 383.663 481.515 383.962 481.515C384.355 481.515 384.705 481.591 385.012 481.744C385.32 481.893 385.562 482.1 385.738 482.363C385.916 482.627 386.006 482.929 386.006 483.269ZM385.188 483.251C385.188 483.014 385.137 482.804 385.034 482.623C384.932 482.438 384.788 482.294 384.604 482.192C384.419 482.089 384.205 482.038 383.962 482.038C383.713 482.038 383.498 482.089 383.316 482.192C383.137 482.294 382.998 482.438 382.899 482.623C382.799 482.804 382.749 483.014 382.749 483.251C382.749 483.497 382.798 483.708 382.894 483.884C382.994 484.057 383.134 484.19 383.316 484.284C383.501 484.375 383.719 484.42 383.971 484.42C384.223 484.42 384.44 484.375 384.621 484.284C384.803 484.19 384.942 484.057 385.039 483.884C385.138 483.708 385.188 483.497 385.188 483.251ZM385.856 480.267C385.856 480.578 385.774 480.857 385.61 481.106C385.446 481.355 385.222 481.552 384.938 481.695C384.654 481.839 384.331 481.911 383.971 481.911C383.605 481.911 383.278 481.839 382.991 481.695C382.707 481.552 382.484 481.355 382.323 481.106C382.162 480.857 382.081 480.578 382.081 480.267C382.081 479.895 382.162 479.579 382.323 479.318C382.487 479.057 382.711 478.858 382.995 478.72C383.28 478.583 383.603 478.514 383.967 478.514C384.333 478.514 384.658 478.583 384.942 478.72C385.226 478.858 385.449 479.057 385.61 479.318C385.774 479.579 385.856 479.895 385.856 480.267ZM385.043 480.28C385.043 480.066 384.998 479.877 384.907 479.713C384.816 479.549 384.69 479.42 384.529 479.327C384.368 479.23 384.18 479.182 383.967 479.182C383.753 479.182 383.565 479.227 383.404 479.318C383.246 479.406 383.121 479.532 383.03 479.696C382.943 479.86 382.899 480.055 382.899 480.28C382.899 480.5 382.943 480.692 383.03 480.856C383.121 481.02 383.247 481.147 383.408 481.238C383.57 481.329 383.757 481.375 383.971 481.375C384.185 481.375 384.371 481.329 384.529 481.238C384.69 481.147 384.816 481.02 384.907 480.856C384.998 480.692 385.043 480.5 385.043 480.28ZM387.135 484.569C387.135 484.432 387.177 484.316 387.262 484.222C387.35 484.125 387.476 484.077 387.64 484.077C387.804 484.077 387.929 484.125 388.014 484.222C388.102 484.316 388.146 484.432 388.146 484.569C388.146 484.704 388.102 484.818 388.014 484.912C387.929 485.006 387.804 485.053 387.64 485.053C387.476 485.053 387.35 485.006 387.262 484.912C387.177 484.818 387.135 484.704 387.135 484.569ZM393.424 481.291V482.267C393.424 482.791 393.377 483.233 393.283 483.594C393.189 483.954 393.054 484.244 392.879 484.464C392.703 484.684 392.49 484.843 392.241 484.943C391.995 485.04 391.717 485.088 391.406 485.088C391.16 485.088 390.933 485.057 390.725 484.996C390.517 484.934 390.33 484.836 390.163 484.701C389.999 484.563 389.858 484.385 389.741 484.165C389.624 483.945 389.534 483.679 389.473 483.365C389.411 483.052 389.381 482.686 389.381 482.267V481.291C389.381 480.767 389.427 480.327 389.521 479.973C389.618 479.618 389.754 479.334 389.93 479.12C390.106 478.903 390.317 478.748 390.563 478.654C390.812 478.561 391.09 478.514 391.398 478.514C391.647 478.514 391.875 478.544 392.083 478.606C392.294 478.665 392.482 478.76 392.646 478.892C392.81 479.021 392.949 479.193 393.063 479.41C393.18 479.624 393.27 479.886 393.331 480.197C393.393 480.507 393.424 480.872 393.424 481.291ZM392.606 482.398V481.155C392.606 480.868 392.589 480.616 392.553 480.399C392.521 480.179 392.473 479.992 392.408 479.836C392.344 479.681 392.262 479.555 392.162 479.458C392.066 479.362 391.953 479.292 391.824 479.248C391.698 479.201 391.556 479.177 391.398 479.177C391.204 479.177 391.033 479.214 390.884 479.287C390.734 479.357 390.608 479.47 390.506 479.625C390.406 479.781 390.33 479.984 390.277 480.236C390.224 480.488 390.198 480.794 390.198 481.155V482.398C390.198 482.686 390.214 482.939 390.246 483.159C390.281 483.378 390.333 483.569 390.4 483.73C390.468 483.888 390.55 484.019 390.646 484.121C390.743 484.224 390.854 484.3 390.98 484.35C391.109 484.396 391.251 484.42 391.406 484.42C391.606 484.42 391.78 484.382 391.929 484.306C392.079 484.229 392.203 484.111 392.303 483.95C392.405 483.786 392.482 483.576 392.531 483.321C392.581 483.063 392.606 482.756 392.606 482.398ZM398.662 484.332V485H394.474V484.416L396.57 482.082C396.828 481.795 397.027 481.552 397.168 481.353C397.311 481.15 397.411 480.97 397.467 480.812C397.525 480.651 397.554 480.487 397.554 480.32C397.554 480.109 397.51 479.918 397.423 479.749C397.338 479.576 397.212 479.438 397.045 479.335C396.878 479.233 396.676 479.182 396.438 479.182C396.154 479.182 395.917 479.237 395.726 479.349C395.539 479.457 395.398 479.609 395.304 479.806C395.211 480.002 395.164 480.228 395.164 480.482H394.351C394.351 480.122 394.43 479.792 394.588 479.494C394.746 479.195 394.981 478.958 395.291 478.782C395.602 478.603 395.984 478.514 396.438 478.514C396.843 478.514 397.188 478.585 397.475 478.729C397.762 478.87 397.982 479.069 398.134 479.327C398.29 479.582 398.367 479.88 398.367 480.223C398.367 480.411 398.335 480.601 398.271 480.794C398.209 480.985 398.123 481.175 398.011 481.366C397.903 481.556 397.776 481.744 397.629 481.928C397.486 482.113 397.332 482.294 397.168 482.473L395.454 484.332H398.662Z" fill="black"/>
<path opacity="0.9" d="M205.849 478.566V485H205.036V479.582L203.397 480.179V479.445L205.721 478.566H205.849ZM212.564 482.847V483.515H207.941V483.036L210.806 478.602H211.469L210.758 479.885L208.863 482.847H212.564ZM211.672 478.602V485H210.859V478.602H211.672ZM213.403 484.569C213.403 484.432 213.445 484.316 213.53 484.222C213.618 484.125 213.744 484.077 213.908 484.077C214.072 484.077 214.197 484.125 214.282 484.222C214.37 484.316 214.414 484.432 214.414 484.569C214.414 484.704 214.37 484.818 214.282 484.912C214.197 485.006 214.072 485.053 213.908 485.053C213.744 485.053 213.618 485.006 213.53 484.912C213.445 484.818 213.403 484.704 213.403 484.569ZM219.692 481.291V482.267C219.692 482.791 219.645 483.233 219.551 483.594C219.457 483.954 219.322 484.244 219.147 484.464C218.971 484.684 218.758 484.843 218.509 484.943C218.263 485.04 217.985 485.088 217.674 485.088C217.428 485.088 217.201 485.057 216.993 484.996C216.785 484.934 216.598 484.836 216.431 484.701C216.267 484.563 216.126 484.385 216.009 484.165C215.892 483.945 215.802 483.679 215.741 483.365C215.679 483.052 215.649 482.686 215.649 482.267V481.291C215.649 480.767 215.695 480.327 215.789 479.973C215.886 479.618 216.022 479.334 216.198 479.12C216.374 478.903 216.585 478.748 216.831 478.654C217.08 478.561 217.358 478.514 217.666 478.514C217.915 478.514 218.143 478.544 218.351 478.606C218.562 478.665 218.75 478.76 218.914 478.892C219.078 479.021 219.217 479.193 219.331 479.41C219.448 479.624 219.538 479.886 219.599 480.197C219.661 480.507 219.692 480.872 219.692 481.291ZM218.874 482.398V481.155C218.874 480.868 218.857 480.616 218.821 480.399C218.789 480.179 218.741 479.992 218.676 479.836C218.612 479.681 218.53 479.555 218.43 479.458C218.334 479.362 218.221 479.292 218.092 479.248C217.966 479.201 217.824 479.177 217.666 479.177C217.472 479.177 217.301 479.214 217.152 479.287C217.002 479.357 216.876 479.47 216.774 479.625C216.674 479.781 216.598 479.984 216.545 480.236C216.492 480.488 216.466 480.794 216.466 481.155V482.398C216.466 482.686 216.482 482.939 216.514 483.159C216.549 483.378 216.601 483.569 216.668 483.73C216.736 483.888 216.818 484.019 216.914 484.121C217.011 484.224 217.122 484.3 217.248 484.35C217.377 484.396 217.519 484.42 217.674 484.42C217.874 484.42 218.048 484.382 218.197 484.306C218.347 484.229 218.471 484.111 218.571 483.95C218.674 483.786 218.75 483.576 218.799 483.321C218.849 483.063 218.874 482.756 218.874 482.398ZM223.409 478.566V485H222.596V479.582L220.957 480.179V479.445L223.282 478.566H223.409Z" fill="black"/>
<path opacity="0.9" d="M33.5483 481.291V482.267C33.5483 482.791 33.5015 483.233 33.4077 483.594C33.314 483.954 33.1792 484.244 33.0034 484.464C32.8276 484.684 32.6152 484.843 32.3662 484.943C32.1201 485.04 31.8418 485.088 31.5312 485.088C31.2852 485.088 31.0581 485.057 30.8501 484.996C30.6421 484.934 30.4546 484.836 30.2876 484.701C30.1235 484.563 29.9829 484.385 29.8657 484.165C29.7485 483.945 29.6592 483.679 29.5977 483.365C29.5361 483.052 29.5054 482.686 29.5054 482.267V481.291C29.5054 480.767 29.5522 480.327 29.646 479.973C29.7427 479.618 29.8789 479.334 30.0547 479.12C30.2305 478.903 30.4414 478.748 30.6875 478.654C30.9365 478.561 31.2148 478.514 31.5225 478.514C31.7715 478.514 32 478.544 32.208 478.606C32.4189 478.665 32.6064 478.76 32.7705 478.892C32.9346 479.021 33.0737 479.193 33.188 479.41C33.3052 479.624 33.3945 479.886 33.4561 480.197C33.5176 480.507 33.5483 480.872 33.5483 481.291ZM32.731 482.398V481.155C32.731 480.868 32.7134 480.616 32.6782 480.399C32.646 480.179 32.5977 479.992 32.5332 479.836C32.4688 479.681 32.3867 479.555 32.2871 479.458C32.1904 479.362 32.0776 479.292 31.9487 479.248C31.8228 479.201 31.6807 479.177 31.5225 479.177C31.3291 479.177 31.1577 479.214 31.0083 479.287C30.8589 479.357 30.7329 479.47 30.6304 479.625C30.5308 479.781 30.4546 479.984 30.4019 480.236C30.3491 480.488 30.3228 480.794 30.3228 481.155V482.398C30.3228 482.686 30.3389 482.939 30.3711 483.159C30.4062 483.378 30.4575 483.569 30.5249 483.73C30.5923 483.888 30.6743 484.019 30.771 484.121C30.8677 484.224 30.979 484.3 31.105 484.35C31.2339 484.396 31.376 484.42 31.5312 484.42C31.7305 484.42 31.9048 484.382 32.0542 484.306C32.2036 484.229 32.3281 484.111 32.4277 483.95C32.5303 483.786 32.6064 483.576 32.6562 483.321C32.7061 483.063 32.731 482.756 32.731 482.398ZM37.2661 478.566V485H36.4531V479.582L34.814 480.179V479.445L37.1387 478.566H37.2661ZM39.7578 484.569C39.7578 484.432 39.8003 484.316 39.8853 484.222C39.9731 484.125 40.0991 484.077 40.2632 484.077C40.4272 484.077 40.5518 484.125 40.6367 484.222C40.7246 484.316 40.7686 484.432 40.7686 484.569C40.7686 484.704 40.7246 484.818 40.6367 484.912C40.5518 485.006 40.4272 485.053 40.2632 485.053C40.0991 485.053 39.9731 485.006 39.8853 484.912C39.8003 484.818 39.7578 484.704 39.7578 484.569ZM46.0464 481.291V482.267C46.0464 482.791 45.9995 483.233 45.9058 483.594C45.812 483.954 45.6772 484.244 45.5015 484.464C45.3257 484.684 45.1133 484.843 44.8643 484.943C44.6182 485.04 44.3398 485.088 44.0293 485.088C43.7832 485.088 43.5562 485.057 43.3481 484.996C43.1401 484.934 42.9526 484.836 42.7856 484.701C42.6216 484.563 42.481 484.385 42.3638 484.165C42.2466 483.945 42.1572 483.679 42.0957 483.365C42.0342 483.052 42.0034 482.686 42.0034 482.267V481.291C42.0034 480.767 42.0503 480.327 42.144 479.973C42.2407 479.618 42.377 479.334 42.5527 479.12C42.7285 478.903 42.9395 478.748 43.1855 478.654C43.4346 478.561 43.7129 478.514 44.0205 478.514C44.2695 478.514 44.498 478.544 44.7061 478.606C44.917 478.665 45.1045 478.76 45.2686 478.892C45.4326 479.021 45.5718 479.193 45.686 479.41C45.8032 479.624 45.8926 479.886 45.9541 480.197C46.0156 480.507 46.0464 480.872 46.0464 481.291ZM45.229 482.398V481.155C45.229 480.868 45.2114 480.616 45.1763 480.399C45.144 480.179 45.0957 479.992 45.0312 479.836C44.9668 479.681 44.8848 479.555 44.7852 479.458C44.6885 479.362 44.5757 479.292 44.4468 479.248C44.3208 479.201 44.1787 479.177 44.0205 479.177C43.8271 479.177 43.6558 479.214 43.5063 479.287C43.3569 479.357 43.231 479.47 43.1284 479.625C43.0288 479.781 42.9526 479.984 42.8999 480.236C42.8472 480.488 42.8208 480.794 42.8208 481.155V482.398C42.8208 482.686 42.8369 482.939 42.8691 483.159C42.9043 483.378 42.9556 483.569 43.0229 483.73C43.0903 483.888 43.1724 484.019 43.269 484.121C43.3657 484.224 43.4771 484.3 43.603 484.35C43.7319 484.396 43.874 484.42 44.0293 484.42C44.2285 484.42 44.4028 484.382 44.5522 484.306C44.7017 484.229 44.8262 484.111 44.9258 483.95C45.0283 483.786 45.1045 483.576 45.1543 483.321C45.2041 483.063 45.229 482.756 45.229 482.398ZM51.2847 484.332V485H47.0967V484.416L49.1929 482.082C49.4507 481.795 49.6499 481.552 49.7905 481.353C49.9341 481.15 50.0337 480.97 50.0894 480.812C50.1479 480.651 50.1772 480.487 50.1772 480.32C50.1772 480.109 50.1333 479.918 50.0454 479.749C49.9604 479.576 49.8345 479.438 49.6675 479.335C49.5005 479.233 49.2983 479.182 49.061 479.182C48.7769 479.182 48.5396 479.237 48.3491 479.349C48.1616 479.457 48.021 479.609 47.9272 479.806C47.8335 480.002 47.7866 480.228 47.7866 480.482H46.9736C46.9736 480.122 47.0527 479.792 47.2109 479.494C47.3691 479.195 47.6035 478.958 47.9141 478.782C48.2246 478.603 48.6069 478.514 49.061 478.514C49.4653 478.514 49.811 478.585 50.0981 478.729C50.3853 478.87 50.605 479.069 50.7573 479.327C50.9126 479.582 50.9902 479.88 50.9902 480.223C50.9902 480.411 50.958 480.601 50.8936 480.794C50.832 480.985 50.7456 481.175 50.6343 481.366C50.5259 481.556 50.3984 481.744 50.252 481.928C50.1084 482.113 49.9546 482.294 49.7905 482.473L48.0767 484.332H51.2847Z" fill="black"/>
<rect width="412" height="80" transform="translate(8 810)" fill="#F3EDF7"/>
<g clip-path="url(#clip2_141_42853)">
<path d="M61.2628 844.796H59.3638V839.099H55.5656V844.796H54.2995V837.2H50.5014V844.796H49.2353V835.301H45.4372V844.796H43.5381V845.429H61.2628V844.796Z" fill="#49454F"/>
<path d="M56.0657 837.624L59.5853 836.174L57.8888 832.775L57.3191 833.053L58.5029 835.433L45.5511 830.572L45.3232 831.167L58.2813 836.028L55.8252 837.035L56.0657 837.624Z" fill="#49454F"/>
</g>
<path d="M30.0465 866.889H27.8492V865.624H30.0465C30.4059 865.624 30.6969 865.565 30.9195 865.448C31.1461 865.327 31.3121 865.163 31.4176 864.956C31.523 864.745 31.5758 864.504 31.5758 864.235C31.5758 863.973 31.523 863.729 31.4176 863.502C31.3121 863.276 31.1461 863.092 30.9195 862.952C30.6969 862.811 30.4059 862.741 30.0465 862.741H28.3766V870H26.7652V861.469H30.0465C30.7105 861.469 31.277 861.588 31.7457 861.827C32.2184 862.061 32.5777 862.387 32.8238 862.805C33.0738 863.219 33.1988 863.692 33.1988 864.223C33.1988 864.774 33.0738 865.249 32.8238 865.647C32.5777 866.045 32.2184 866.352 31.7457 866.567C31.277 866.782 30.7105 866.889 30.0465 866.889ZM38.2691 868.653V865.729C38.2691 865.514 38.232 865.329 38.1578 865.172C38.0836 865.016 37.9703 864.895 37.818 864.809C37.6656 864.723 37.4723 864.68 37.2379 864.68C37.0309 864.68 36.8492 864.715 36.693 864.786C36.5406 864.856 36.4234 864.956 36.3414 865.084C36.2594 865.209 36.2184 865.354 36.2184 865.518H34.6656C34.6656 865.256 34.7281 865.008 34.8531 864.774C34.9781 864.536 35.1559 864.325 35.3863 864.141C35.6207 863.954 35.9 863.807 36.2242 863.702C36.5523 863.596 36.9195 863.543 37.3258 863.543C37.8063 863.543 38.234 863.625 38.609 863.79C38.9879 863.95 39.2848 864.192 39.4996 864.516C39.7184 864.84 39.8277 865.249 39.8277 865.741V868.506C39.8277 868.823 39.8473 869.094 39.8863 869.321C39.9293 869.543 39.9918 869.737 40.0738 869.901V870H38.4977C38.4234 869.84 38.3668 869.637 38.3277 869.391C38.2887 869.141 38.2691 868.895 38.2691 868.653ZM38.4859 866.139L38.4977 867.059H37.5191C37.277 867.059 37.0641 867.084 36.8805 867.135C36.6969 867.182 36.5465 867.252 36.4293 867.346C36.3121 867.436 36.2242 867.545 36.1656 867.674C36.107 867.799 36.0777 867.942 36.0777 868.102C36.0777 868.258 36.1129 868.399 36.1832 868.524C36.2574 868.649 36.3629 868.749 36.4996 868.823C36.6402 868.893 36.8043 868.928 36.9918 868.928C37.2652 868.928 37.5035 868.874 37.7066 868.764C37.9098 868.651 38.068 868.514 38.1813 868.354C38.2945 868.194 38.3551 868.042 38.3629 867.897L38.8082 868.565C38.7535 868.725 38.6715 868.895 38.5621 869.075C38.4527 869.254 38.3121 869.422 38.1402 869.579C37.9684 869.735 37.7613 869.864 37.5191 869.965C37.277 870.067 36.9957 870.118 36.6754 870.118C36.2652 870.118 35.898 870.036 35.5738 869.872C35.2496 869.708 34.9938 869.483 34.8063 869.198C34.6188 868.913 34.525 868.588 34.525 868.225C34.525 867.889 34.5875 867.592 34.7125 867.334C34.8375 867.077 35.023 866.86 35.2691 866.684C35.5152 866.504 35.8199 866.37 36.1832 866.28C36.5504 866.186 36.9703 866.139 37.443 866.139H38.4859ZM44.3238 868.899C44.5426 868.899 44.7379 868.856 44.9098 868.77C45.0816 868.684 45.2184 868.563 45.3199 868.407C45.4254 868.25 45.482 868.069 45.4898 867.862H46.9488C46.941 868.292 46.8199 868.676 46.5855 869.016C46.3512 869.356 46.0387 869.625 45.648 869.825C45.2613 870.02 44.8277 870.118 44.3473 870.118C43.859 870.118 43.4332 870.036 43.0699 869.872C42.7066 869.708 42.4039 869.479 42.1617 869.186C41.9234 868.893 41.7438 868.553 41.6227 868.167C41.5055 867.78 41.4469 867.366 41.4469 866.924V866.737C41.4469 866.295 41.5055 865.881 41.6227 865.495C41.7438 865.108 41.9234 864.768 42.1617 864.475C42.4039 864.182 42.7066 863.954 43.0699 863.79C43.4332 863.625 43.857 863.543 44.3414 863.543C44.8531 863.543 45.3023 863.643 45.6891 863.842C46.0797 864.042 46.3844 864.323 46.6031 864.686C46.8258 865.049 46.941 865.477 46.9488 865.969H45.4898C45.482 865.743 45.4313 865.54 45.3375 865.36C45.2438 865.18 45.1109 865.036 44.9391 864.926C44.7672 864.817 44.5582 864.762 44.3121 864.762C44.0504 864.762 43.8316 864.817 43.6559 864.926C43.484 865.036 43.3492 865.186 43.2516 865.377C43.1578 865.565 43.0914 865.776 43.0523 866.01C43.0172 866.241 42.9996 866.483 42.9996 866.737V866.924C42.9996 867.182 43.0172 867.428 43.0523 867.663C43.0914 867.897 43.1578 868.108 43.2516 868.295C43.3492 868.479 43.484 868.625 43.6559 868.735C43.8316 868.844 44.0543 868.899 44.3238 868.899ZM49.693 863.661L50.8238 865.676L51.9723 863.661H53.6539L51.7906 866.766L53.7301 870H52.0484L50.8355 867.885L49.6168 870H47.9352L49.8688 866.766L48.0172 863.661H49.693ZM54.5992 866.895V866.772C54.5992 866.307 54.6656 865.879 54.7984 865.489C54.9313 865.094 55.1246 864.752 55.3785 864.463C55.6324 864.174 55.943 863.95 56.3102 863.79C56.6773 863.625 57.0953 863.543 57.5641 863.543C58.0406 863.543 58.4625 863.625 58.8297 863.79C59.2008 863.95 59.5133 864.174 59.7672 864.463C60.0211 864.752 60.2145 865.094 60.3473 865.489C60.4801 865.879 60.5465 866.307 60.5465 866.772V866.895C60.5465 867.356 60.4801 867.784 60.3473 868.178C60.2145 868.569 60.0211 868.911 59.7672 869.204C59.5133 869.493 59.2027 869.717 58.8355 869.877C58.4684 870.038 58.0484 870.118 57.5758 870.118C57.107 870.118 56.6871 870.038 56.316 869.877C55.9449 869.717 55.6324 869.493 55.3785 869.204C55.1246 868.911 54.9313 868.569 54.7984 868.178C54.6656 867.784 54.5992 867.356 54.5992 866.895ZM56.1461 866.772V866.895C56.1461 867.172 56.1734 867.432 56.2281 867.674C56.2828 867.917 56.3668 868.129 56.4801 868.313C56.5934 868.497 56.7398 868.641 56.9195 868.747C57.1031 868.848 57.3219 868.899 57.5758 868.899C57.8258 868.899 58.0406 868.848 58.2203 868.747C58.4 868.641 58.5465 868.497 58.6598 868.313C58.777 868.129 58.8629 867.917 58.9176 867.674C58.9723 867.432 58.9996 867.172 58.9996 866.895V866.772C58.9996 866.499 58.9723 866.243 58.9176 866.004C58.8629 865.762 58.777 865.549 58.6598 865.366C58.5465 865.178 58.398 865.032 58.2145 864.926C58.0348 864.817 57.818 864.762 57.5641 864.762C57.3141 864.762 57.0992 864.817 56.9195 864.926C56.7398 865.032 56.5934 865.178 56.4801 865.366C56.3668 865.549 56.2828 865.762 56.2281 866.004C56.1734 866.243 56.1461 866.499 56.1461 866.772ZM62.8922 863.661H64.4391L64.3805 865.84C64.3609 866.5 64.2828 867.071 64.1461 867.551C64.0133 868.028 63.8355 868.428 63.6129 868.752C63.3941 869.077 63.1441 869.338 62.8629 869.538C62.5855 869.737 62.2945 869.891 61.9898 870H61.6207L61.6148 868.793L61.7965 868.782C61.9801 868.586 62.1344 868.395 62.2594 868.208C62.3883 868.016 62.4918 867.811 62.5699 867.592C62.648 867.374 62.7066 867.124 62.7457 866.842C62.7887 866.557 62.816 866.223 62.8277 865.84L62.8922 863.661ZM63.3082 863.661H67.4156V870H65.8688V864.932H63.3082V863.661ZM61.2691 868.782H68.3004V871.899H66.7535V870H62.8453V871.899H61.2633L61.2691 868.782ZM70.8512 865.612H72.7027C73.2652 865.612 73.7438 865.706 74.1383 865.893C74.5367 866.077 74.8395 866.334 75.0465 866.667C75.2574 866.995 75.3629 867.375 75.3629 867.809C75.3629 868.122 75.3023 868.413 75.1813 868.682C75.0641 868.948 74.8922 869.18 74.6656 869.379C74.4391 869.575 74.1598 869.727 73.8277 869.836C73.4996 869.946 73.1246 870 72.7027 870H69.8551V863.661H71.4078V868.788H72.7027C72.9723 868.788 73.1871 868.743 73.3473 868.653C73.5113 868.559 73.6285 868.44 73.6988 868.295C73.773 868.147 73.8102 867.989 73.8102 867.821C73.8102 867.649 73.773 867.489 73.6988 867.34C73.6285 867.188 73.5113 867.065 73.3473 866.971C73.1871 866.877 72.9723 866.831 72.7027 866.831H70.8512V865.612ZM77.9645 863.661V870H76.4117V863.661H77.9645Z" fill="#1D1B20"/>
<path d="M141.307 844.85H139.57V836.165H136.096V844.85H134.938V837.902H131.464V844.85H130.306V839.639H126.832V844.85H125.095V845.429H141.307V844.85Z" fill="#49454F"/>
<path d="M138.221 835.001L139.772 831.892L136.553 830.572L136.333 831.104L138.58 832.031L126.728 836.472L126.936 837.016L138.788 832.569L137.7 834.746L138.221 835.001Z" fill="#49454F"/>
<path d="M117.055 868.834V870H110.768V868.834H117.055ZM111.131 868.834V872.098H109.725L109.672 868.834H111.131ZM118.192 868.834L118.104 872.092H116.721V868.834H118.192ZM116.024 861.469V862.641H112.087V861.469H116.024ZM117.149 861.469V870H115.684V861.469H117.149ZM111.794 861.469H113.264L113.059 864.926C113.028 865.473 112.971 865.965 112.889 866.403C112.807 866.84 112.708 867.233 112.59 867.581C112.477 867.924 112.348 868.229 112.204 868.495C112.059 868.756 111.905 868.983 111.741 869.174C111.577 869.366 111.409 869.53 111.237 869.667C111.069 869.799 110.903 869.911 110.739 870H109.954V868.834H110.335C110.44 868.737 110.557 868.596 110.686 868.413C110.815 868.225 110.94 867.981 111.061 867.68C111.186 867.375 111.296 866.999 111.389 866.549C111.483 866.1 111.547 865.559 111.583 864.926L111.794 861.469ZM119.395 866.901V866.766C119.395 866.309 119.462 865.885 119.594 865.495C119.727 865.1 119.919 864.758 120.169 864.469C120.422 864.176 120.731 863.95 121.094 863.79C121.462 863.625 121.876 863.543 122.337 863.543C122.801 863.543 123.215 863.625 123.579 863.79C123.946 863.95 124.256 864.176 124.51 864.469C124.764 864.758 124.958 865.1 125.09 865.495C125.223 865.885 125.29 866.309 125.29 866.766V866.901C125.29 867.358 125.223 867.782 125.09 868.172C124.958 868.563 124.764 868.905 124.51 869.198C124.256 869.487 123.948 869.713 123.585 869.877C123.221 870.038 122.809 870.118 122.348 870.118C121.883 870.118 121.467 870.038 121.1 869.877C120.737 869.713 120.428 869.487 120.174 869.198C119.921 868.905 119.727 868.563 119.594 868.172C119.462 867.782 119.395 867.358 119.395 866.901ZM120.807 866.766V866.901C120.807 867.186 120.837 867.456 120.895 867.709C120.954 867.963 121.046 868.186 121.171 868.377C121.296 868.569 121.456 868.719 121.651 868.829C121.846 868.938 122.079 868.993 122.348 868.993C122.61 868.993 122.837 868.938 123.028 868.829C123.223 868.719 123.383 868.569 123.508 868.377C123.633 868.186 123.725 867.963 123.784 867.709C123.846 867.456 123.878 867.186 123.878 866.901V866.766C123.878 866.485 123.846 866.219 123.784 865.969C123.725 865.715 123.631 865.491 123.503 865.295C123.378 865.1 123.217 864.948 123.022 864.838C122.831 864.725 122.602 864.668 122.337 864.668C122.071 864.668 121.84 864.725 121.645 864.838C121.454 864.948 121.296 865.1 121.171 865.295C121.046 865.491 120.954 865.715 120.895 865.969C120.837 866.219 120.807 866.485 120.807 866.766ZM127.922 863.661L129.129 865.764L130.36 863.661H131.913L129.991 866.772L131.989 870H130.436L129.147 867.809L127.858 870H126.299L128.292 866.772L126.376 863.661H127.922ZM132.946 866.901V866.766C132.946 866.309 133.012 865.885 133.145 865.495C133.278 865.1 133.469 864.758 133.719 864.469C133.973 864.176 134.282 863.95 134.645 863.79C135.012 863.625 135.426 863.543 135.887 863.543C136.352 863.543 136.766 863.625 137.129 863.79C137.497 863.95 137.807 864.176 138.061 864.469C138.315 864.758 138.508 865.1 138.641 865.495C138.774 865.885 138.84 866.309 138.84 866.766V866.901C138.84 867.358 138.774 867.782 138.641 868.172C138.508 868.563 138.315 868.905 138.061 869.198C137.807 869.487 137.499 869.713 137.135 869.877C136.772 870.038 136.36 870.118 135.899 870.118C135.434 870.118 135.018 870.038 134.651 869.877C134.288 869.713 133.979 869.487 133.725 869.198C133.471 868.905 133.278 868.563 133.145 868.172C133.012 867.782 132.946 867.358 132.946 866.901ZM134.358 866.766V866.901C134.358 867.186 134.387 867.456 134.446 867.709C134.504 867.963 134.596 868.186 134.721 868.377C134.846 868.569 135.006 868.719 135.202 868.829C135.397 868.938 135.629 868.993 135.899 868.993C136.161 868.993 136.387 868.938 136.579 868.829C136.774 868.719 136.934 868.569 137.059 868.377C137.184 868.186 137.276 867.963 137.335 867.709C137.397 867.456 137.428 867.186 137.428 866.901V866.766C137.428 866.485 137.397 866.219 137.335 865.969C137.276 865.715 137.182 865.491 137.053 865.295C136.928 865.1 136.768 864.948 136.573 864.838C136.381 864.725 136.153 864.668 135.887 864.668C135.622 864.668 135.391 864.725 135.196 864.838C135.004 864.948 134.846 865.1 134.721 865.295C134.596 865.491 134.504 865.715 134.446 865.969C134.387 866.219 134.358 866.485 134.358 866.766ZM141.251 863.661H142.663L142.592 865.893C142.573 866.542 142.499 867.098 142.37 867.563C142.241 868.028 142.073 868.42 141.866 868.741C141.659 869.057 141.424 869.317 141.163 869.52C140.905 869.723 140.633 869.883 140.348 870H139.932V868.887L140.131 868.875C140.299 868.696 140.444 868.516 140.565 868.336C140.69 868.153 140.796 867.952 140.881 867.733C140.967 867.51 141.034 867.25 141.081 866.954C141.131 866.657 141.165 866.303 141.18 865.893L141.251 863.661ZM141.626 863.661H145.645V870H144.239V864.856H141.626V863.661ZM139.61 868.875H146.512V871.887H145.1V870H141.04V871.887H139.604L139.61 868.875ZM149.069 865.676H150.938C151.485 865.676 151.95 865.768 152.333 865.952C152.715 866.135 153.006 866.391 153.206 866.719C153.409 867.043 153.51 867.415 153.51 867.833C153.51 868.141 153.454 868.428 153.34 868.694C153.227 868.956 153.059 869.184 152.837 869.379C152.618 869.575 152.348 869.727 152.028 869.836C151.712 869.946 151.348 870 150.938 870H148.131V863.661H149.549V868.881H150.938C151.219 868.881 151.444 868.833 151.612 868.735C151.78 868.637 151.901 868.51 151.975 868.354C152.053 868.198 152.092 868.032 152.092 867.856C152.092 867.676 152.053 867.506 151.975 867.346C151.901 867.186 151.78 867.055 151.612 866.954C151.444 866.852 151.219 866.801 150.938 866.801H149.069V865.676ZM156.006 863.661V870H154.594V863.661H156.006Z" fill="#49454F"/>
<g clip-path="url(#clip3_141_42853)">
<rect x="182" y="822" width="64" height="32" rx="16" fill="#D4FAE6"/>
<path d="M208.738 830.572C208.057 830.572 207.5 831.129 207.5 831.81V844.191C207.5 844.872 208.057 845.429 208.738 845.429H219.262C219.943 845.429 220.5 844.872 220.5 844.191V831.81C220.5 831.129 219.943 830.572 219.262 830.572H208.738ZM211.214 843.572H209.357V841.715H211.214V843.572ZM211.214 841.096H209.357V839.239H211.214V841.096ZM211.214 838.62H209.357V836.762H211.214V838.62ZM213.69 843.572H211.833V841.715H213.69V843.572ZM213.69 841.096H211.833V839.239H213.69V841.096ZM213.69 838.62H211.833V836.762H213.69V838.62ZM216.167 843.572H214.31V841.715H216.167V843.572ZM216.167 841.096H214.31V839.239H216.167V841.096ZM216.167 838.62H214.31V836.762H216.167V838.62ZM218.643 843.572H216.786V839.239H218.643V843.572ZM218.643 838.62H216.786V836.762H218.643V838.62ZM218.643 835.524H209.357V832.429H218.643V835.524Z" fill="#2AE881"/>
</g>
<path d="M205.773 867.223H207.238C207.191 867.782 207.035 868.28 206.769 868.717C206.504 869.151 206.13 869.493 205.65 869.743C205.17 869.993 204.586 870.118 203.898 870.118C203.371 870.118 202.896 870.024 202.474 869.836C202.052 869.645 201.691 869.375 201.39 869.028C201.089 868.676 200.859 868.252 200.699 867.756C200.543 867.26 200.464 866.706 200.464 866.092V865.383C200.464 864.77 200.545 864.215 200.705 863.719C200.869 863.223 201.103 862.799 201.408 862.448C201.713 862.092 202.078 861.821 202.504 861.633C202.933 861.446 203.416 861.352 203.951 861.352C204.63 861.352 205.205 861.477 205.673 861.727C206.142 861.977 206.505 862.323 206.763 862.764C207.025 863.206 207.185 863.711 207.244 864.282H205.779C205.74 863.915 205.654 863.6 205.521 863.338C205.392 863.077 205.201 862.877 204.947 862.741C204.693 862.6 204.361 862.53 203.951 862.53C203.615 862.53 203.322 862.592 203.072 862.717C202.822 862.842 202.613 863.026 202.445 863.268C202.277 863.51 202.15 863.809 202.064 864.165C201.982 864.516 201.941 864.918 201.941 865.372V866.092C201.941 866.522 201.978 866.913 202.052 867.264C202.13 867.612 202.248 867.911 202.404 868.161C202.564 868.411 202.767 868.604 203.013 868.741C203.259 868.877 203.554 868.946 203.898 868.946C204.316 868.946 204.654 868.879 204.912 868.747C205.173 868.614 205.371 868.42 205.504 868.167C205.64 867.909 205.73 867.594 205.773 867.223ZM214.025 863.661V870H212.613V863.661H214.025ZM213.427 866.467V867.586C213.255 867.661 213.062 867.729 212.847 867.792C212.636 867.85 212.414 867.899 212.179 867.938C211.945 867.973 211.709 867.991 211.47 867.991C210.912 867.991 210.429 867.905 210.023 867.733C209.621 867.561 209.31 867.297 209.091 866.942C208.877 866.583 208.769 866.127 208.769 865.577V863.655H210.175V865.577C210.175 865.893 210.222 866.145 210.316 866.333C210.414 866.52 210.558 866.655 210.75 866.737C210.941 866.819 211.181 866.86 211.47 866.86C211.713 866.86 211.941 866.844 212.156 866.813C212.371 866.778 212.584 866.731 212.795 866.672C213.005 866.614 213.216 866.545 213.427 866.467ZM218.826 870.118C218.357 870.118 217.933 870.042 217.554 869.889C217.179 869.733 216.859 869.516 216.593 869.239C216.332 868.961 216.13 868.635 215.99 868.26C215.849 867.885 215.779 867.481 215.779 867.047V866.813C215.779 866.317 215.851 865.868 215.996 865.465C216.14 865.063 216.341 864.719 216.599 864.434C216.857 864.145 217.162 863.924 217.513 863.772C217.865 863.62 218.246 863.543 218.656 863.543C219.109 863.543 219.505 863.62 219.845 863.772C220.185 863.924 220.466 864.139 220.689 864.417C220.916 864.69 221.084 865.016 221.193 865.395C221.306 865.774 221.363 866.192 221.363 866.649V867.252H216.464V866.239H219.968V866.127C219.961 865.874 219.91 865.635 219.816 865.413C219.726 865.19 219.588 865.01 219.4 864.874C219.213 864.737 218.963 864.668 218.65 864.668C218.416 864.668 218.207 864.719 218.023 864.821C217.843 864.918 217.693 865.061 217.572 865.249C217.451 865.436 217.357 865.663 217.291 865.928C217.228 866.19 217.197 866.485 217.197 866.813V867.047C217.197 867.325 217.234 867.583 217.308 867.821C217.386 868.055 217.5 868.26 217.648 868.436C217.796 868.612 217.976 868.75 218.187 868.852C218.398 868.95 218.638 868.999 218.908 868.999C219.248 868.999 219.55 868.93 219.816 868.793C220.082 868.657 220.312 868.463 220.507 868.213L221.252 868.934C221.115 869.133 220.937 869.325 220.718 869.508C220.5 869.688 220.232 869.834 219.916 869.948C219.603 870.061 219.24 870.118 218.826 870.118ZM225.836 863.661V870H224.418V863.661H225.836ZM227.916 863.661V864.774H222.373V863.661H227.916Z" fill="#49454F"/>
<g clip-path="url(#clip4_141_42853)">
<path d="M287.627 844.307H301.384V840.456H287.627V839.355H298.082V835.503H287.627V834.403H295.331V830.551H287.627V830H287.077V844.858H287.627V844.307Z" fill="#49454F"/>
</g>
<path d="M279.693 867.223H281.158C281.111 867.782 280.955 868.28 280.689 868.717C280.423 869.151 280.05 869.493 279.57 869.743C279.089 869.993 278.505 870.118 277.818 870.118C277.291 870.118 276.816 870.024 276.394 869.836C275.972 869.645 275.611 869.375 275.31 869.028C275.009 868.676 274.779 868.252 274.619 867.756C274.463 867.26 274.384 866.706 274.384 866.092V865.383C274.384 864.77 274.464 864.215 274.625 863.719C274.789 863.223 275.023 862.799 275.328 862.448C275.632 862.092 275.998 861.821 276.423 861.633C276.853 861.446 277.336 861.352 277.871 861.352C278.55 861.352 279.125 861.477 279.593 861.727C280.062 861.977 280.425 862.323 280.683 862.764C280.945 863.206 281.105 863.711 281.164 864.282H279.699C279.66 863.915 279.574 863.6 279.441 863.338C279.312 863.077 279.121 862.877 278.867 862.741C278.613 862.6 278.281 862.53 277.871 862.53C277.535 862.53 277.242 862.592 276.992 862.717C276.742 862.842 276.533 863.026 276.365 863.268C276.197 863.51 276.07 863.809 275.984 864.165C275.902 864.516 275.861 864.918 275.861 865.372V866.092C275.861 866.522 275.898 866.913 275.972 867.264C276.05 867.612 276.168 867.911 276.324 868.161C276.484 868.411 276.687 868.604 276.933 868.741C277.179 868.877 277.474 868.946 277.818 868.946C278.236 868.946 278.574 868.879 278.832 868.747C279.093 868.614 279.291 868.42 279.423 868.167C279.56 867.909 279.65 867.594 279.693 867.223ZM285.795 863.661V870H284.377V863.661H285.795ZM287.875 863.661V864.774H282.332V863.661H287.875ZM292.798 868.729V865.706C292.798 865.479 292.757 865.284 292.675 865.12C292.593 864.956 292.468 864.829 292.3 864.739C292.136 864.649 291.929 864.604 291.679 864.604C291.449 864.604 291.25 864.643 291.082 864.721C290.914 864.799 290.783 864.905 290.689 865.038C290.595 865.17 290.548 865.321 290.548 865.489H289.142C289.142 865.239 289.203 864.997 289.324 864.762C289.445 864.528 289.621 864.319 289.851 864.135C290.082 863.952 290.357 863.807 290.677 863.702C290.998 863.596 291.357 863.543 291.755 863.543C292.232 863.543 292.654 863.624 293.021 863.784C293.392 863.944 293.683 864.186 293.894 864.51C294.109 864.831 294.216 865.233 294.216 865.717V868.536C294.216 868.825 294.236 869.084 294.275 869.315C294.318 869.542 294.379 869.739 294.457 869.907V870H293.009C292.943 869.848 292.89 869.655 292.851 869.42C292.816 869.182 292.798 868.952 292.798 868.729ZM293.004 866.145L293.015 867.018H292.002C291.74 867.018 291.509 867.043 291.31 867.094C291.111 867.141 290.945 867.211 290.812 867.305C290.679 867.399 290.58 867.512 290.513 867.645C290.447 867.778 290.414 867.928 290.414 868.096C290.414 868.264 290.453 868.418 290.531 868.559C290.609 868.696 290.722 868.803 290.871 868.881C291.023 868.959 291.207 868.999 291.421 868.999C291.711 868.999 291.963 868.94 292.177 868.823C292.396 868.702 292.568 868.555 292.693 868.383C292.818 868.208 292.884 868.042 292.892 867.885L293.349 868.512C293.302 868.672 293.222 868.844 293.109 869.028C292.996 869.211 292.847 869.387 292.664 869.555C292.484 869.719 292.267 869.854 292.013 869.959C291.763 870.065 291.474 870.118 291.146 870.118C290.732 870.118 290.363 870.036 290.039 869.872C289.714 869.704 289.461 869.479 289.277 869.198C289.093 868.913 289.002 868.59 289.002 868.231C289.002 867.895 289.064 867.598 289.189 867.34C289.318 867.079 289.505 866.86 289.752 866.684C290.002 866.508 290.306 866.375 290.666 866.286C291.025 866.192 291.435 866.145 291.896 866.145H293.004ZM299.041 863.661V870H297.623V863.661H299.041ZM301.121 863.661V864.774H295.578V863.661H301.121ZM303.613 865.676H305.482C306.029 865.676 306.494 865.768 306.877 865.952C307.259 866.135 307.55 866.391 307.75 866.719C307.953 867.043 308.054 867.415 308.054 867.833C308.054 868.141 307.998 868.428 307.884 868.694C307.771 868.956 307.603 869.184 307.38 869.379C307.162 869.575 306.892 869.727 306.572 869.836C306.255 869.946 305.892 870 305.482 870H302.675V863.661H304.093V868.881H305.482C305.763 868.881 305.988 868.833 306.156 868.735C306.324 868.637 306.445 868.51 306.519 868.354C306.597 868.198 306.636 868.032 306.636 867.856C306.636 867.676 306.597 867.506 306.519 867.346C306.445 867.186 306.324 867.055 306.156 866.954C305.988 866.852 305.763 866.801 305.482 866.801H303.613V865.676ZM311.144 867.938L313.634 863.661H315.046V870H313.634V865.717L311.144 870H309.732V863.661H311.144V867.938Z" fill="#49454F"/>
<path d="M375.029 828.858L382.431 833.143V841.715L375.029 846.001L367.626 841.715V833.143L375.029 828.858ZM375.029 839.767C375.649 839.767 376.243 839.52 376.682 839.082C377.12 838.644 377.366 838.049 377.366 837.429C377.366 836.809 377.12 836.215 376.682 835.776C376.243 835.338 375.649 835.091 375.029 835.091C374.409 835.091 373.814 835.338 373.376 835.776C372.937 836.215 372.691 836.809 372.691 837.429C372.691 838.049 372.937 838.644 373.376 839.082C373.814 839.52 374.409 839.767 375.029 839.767Z" fill="#49454F"/>
<path d="M349.542 865.032V866.198H345.012V865.032H349.542ZM345.376 861.469V870H343.905V861.469H345.376ZM350.672 861.469V870H349.208V861.469H350.672ZM356.358 868.729V865.706C356.358 865.479 356.317 865.284 356.235 865.12C356.153 864.956 356.028 864.829 355.86 864.739C355.696 864.649 355.489 864.604 355.239 864.604C355.008 864.604 354.809 864.643 354.641 864.721C354.473 864.799 354.342 864.905 354.249 865.038C354.155 865.17 354.108 865.321 354.108 865.489H352.702C352.702 865.239 352.762 864.997 352.883 864.762C353.004 864.528 353.18 864.319 353.411 864.135C353.641 863.952 353.917 863.807 354.237 863.702C354.557 863.596 354.917 863.543 355.315 863.543C355.792 863.543 356.213 863.624 356.581 863.784C356.952 863.944 357.243 864.186 357.454 864.51C357.669 864.831 357.776 865.233 357.776 865.717V868.536C357.776 868.825 357.796 869.084 357.835 869.315C357.878 869.542 357.938 869.739 358.016 869.907V870H356.569C356.503 869.848 356.45 869.655 356.411 869.42C356.376 869.182 356.358 868.952 356.358 868.729ZM356.563 866.145L356.575 867.018H355.561C355.299 867.018 355.069 867.043 354.87 867.094C354.671 867.141 354.504 867.211 354.372 867.305C354.239 867.399 354.139 867.512 354.073 867.645C354.006 867.778 353.973 867.928 353.973 868.096C353.973 868.264 354.012 868.418 354.09 868.559C354.169 868.696 354.282 868.803 354.43 868.881C354.583 868.959 354.766 868.999 354.981 868.999C355.27 868.999 355.522 868.94 355.737 868.823C355.956 868.702 356.128 868.555 356.253 868.383C356.378 868.208 356.444 868.042 356.452 867.885L356.909 868.512C356.862 868.672 356.782 868.844 356.669 869.028C356.555 869.211 356.407 869.387 356.223 869.555C356.044 869.719 355.827 869.854 355.573 869.959C355.323 870.065 355.034 870.118 354.706 870.118C354.292 870.118 353.922 870.036 353.598 869.872C353.274 869.704 353.02 869.479 352.837 869.198C352.653 868.913 352.561 868.59 352.561 868.231C352.561 867.895 352.624 867.598 352.749 867.34C352.878 867.079 353.065 866.86 353.311 866.684C353.561 866.508 353.866 866.375 354.225 866.286C354.585 866.192 354.995 866.145 355.456 866.145H356.563ZM362.342 868.993C362.573 868.993 362.78 868.948 362.963 868.858C363.151 868.764 363.301 868.635 363.415 868.471C363.532 868.307 363.596 868.118 363.608 867.903H364.938C364.93 868.313 364.809 868.686 364.575 869.022C364.34 869.358 364.03 869.625 363.643 869.825C363.256 870.02 362.829 870.118 362.36 870.118C361.876 870.118 361.454 870.036 361.094 869.872C360.735 869.704 360.436 869.473 360.198 869.18C359.96 868.887 359.78 868.549 359.659 868.167C359.542 867.784 359.483 867.374 359.483 866.936V866.731C359.483 866.293 359.542 865.883 359.659 865.5C359.78 865.114 359.96 864.774 360.198 864.481C360.436 864.188 360.735 863.959 361.094 863.795C361.454 863.627 361.874 863.543 362.354 863.543C362.862 863.543 363.307 863.645 363.69 863.848C364.073 864.047 364.374 864.327 364.592 864.686C364.815 865.042 364.93 865.456 364.938 865.928H363.608C363.596 865.694 363.538 865.483 363.432 865.295C363.331 865.104 363.186 864.952 362.999 864.838C362.815 864.725 362.594 864.668 362.337 864.668C362.051 864.668 361.815 864.727 361.628 864.844C361.44 864.958 361.294 865.114 361.188 865.313C361.083 865.508 361.006 865.729 360.96 865.975C360.917 866.217 360.895 866.469 360.895 866.731V866.936C360.895 867.198 360.917 867.452 360.96 867.698C361.003 867.944 361.077 868.165 361.182 868.36C361.292 868.551 361.44 868.706 361.628 868.823C361.815 868.936 362.053 868.993 362.342 868.993ZM369.463 863.661V870H368.046V863.661H369.463ZM371.544 863.661V864.774H366.001V863.661H371.544ZM374.405 864.879V872.438H372.993V863.661H374.294L374.405 864.879ZM378.536 866.772V866.895C378.536 867.356 378.481 867.784 378.372 868.178C378.266 868.569 378.108 868.911 377.897 869.204C377.69 869.493 377.434 869.717 377.129 869.877C376.825 870.038 376.473 870.118 376.075 870.118C375.68 870.118 375.335 870.045 375.038 869.901C374.745 869.752 374.497 869.543 374.294 869.274C374.09 869.004 373.926 868.688 373.801 868.325C373.68 867.958 373.594 867.555 373.544 867.118V866.643C373.594 866.178 373.68 865.756 373.801 865.377C373.926 864.999 374.09 864.672 374.294 864.399C374.497 864.125 374.745 863.915 375.038 863.766C375.331 863.618 375.672 863.543 376.063 863.543C376.462 863.543 376.815 863.622 377.124 863.778C377.432 863.93 377.692 864.149 377.903 864.434C378.114 864.715 378.272 865.055 378.378 865.454C378.483 865.848 378.536 866.288 378.536 866.772ZM377.124 866.895V866.772C377.124 866.479 377.096 866.208 377.042 865.958C376.987 865.704 376.901 865.481 376.784 865.29C376.667 865.098 376.516 864.95 376.333 864.844C376.153 864.735 375.936 864.68 375.682 864.68C375.432 864.68 375.217 864.723 375.038 864.809C374.858 864.891 374.708 865.006 374.587 865.155C374.465 865.303 374.372 865.477 374.305 865.676C374.239 865.872 374.192 866.084 374.165 866.315V867.452C374.212 867.733 374.292 867.991 374.405 868.225C374.518 868.459 374.678 868.647 374.885 868.788C375.096 868.924 375.366 868.993 375.694 868.993C375.948 868.993 376.165 868.938 376.344 868.829C376.524 868.719 376.671 868.569 376.784 868.377C376.901 868.182 376.987 867.958 377.042 867.704C377.096 867.45 377.124 867.18 377.124 866.895ZM379.967 866.901V866.766C379.967 866.309 380.034 865.885 380.167 865.495C380.299 865.1 380.491 864.758 380.741 864.469C380.995 864.176 381.303 863.95 381.667 863.79C382.034 863.625 382.448 863.543 382.909 863.543C383.374 863.543 383.788 863.625 384.151 863.79C384.518 863.95 384.829 864.176 385.083 864.469C385.337 864.758 385.53 865.1 385.663 865.495C385.796 865.885 385.862 866.309 385.862 866.766V866.901C385.862 867.358 385.796 867.782 385.663 868.172C385.53 868.563 385.337 868.905 385.083 869.198C384.829 869.487 384.52 869.713 384.157 869.877C383.794 870.038 383.381 870.118 382.921 870.118C382.456 870.118 382.04 870.038 381.672 869.877C381.309 869.713 381.001 869.487 380.747 869.198C380.493 868.905 380.299 868.563 380.167 868.172C380.034 867.782 379.967 867.358 379.967 866.901ZM381.379 866.766V866.901C381.379 867.186 381.409 867.456 381.467 867.709C381.526 867.963 381.618 868.186 381.743 868.377C381.868 868.569 382.028 868.719 382.223 868.829C382.419 868.938 382.651 868.993 382.921 868.993C383.182 868.993 383.409 868.938 383.6 868.829C383.796 868.719 383.956 868.569 384.081 868.377C384.206 868.186 384.297 867.963 384.356 867.709C384.419 867.456 384.45 867.186 384.45 866.901V866.766C384.45 866.485 384.419 866.219 384.356 865.969C384.297 865.715 384.204 865.491 384.075 865.295C383.95 865.1 383.79 864.948 383.594 864.838C383.403 864.725 383.174 864.668 382.909 864.668C382.643 864.668 382.413 864.725 382.217 864.838C382.026 864.948 381.868 865.1 381.743 865.295C381.618 865.491 381.526 865.715 381.467 865.969C381.409 866.219 381.379 866.485 381.379 866.766ZM389.004 867.938L391.495 863.661H392.907V870H391.495V865.717L389.004 870H387.592V863.661H389.004V867.938ZM391.12 861.223H392.169C392.169 861.547 392.09 861.834 391.934 862.084C391.782 862.331 391.563 862.524 391.278 862.665C390.997 862.805 390.661 862.875 390.27 862.875C389.68 862.875 389.213 862.723 388.87 862.418C388.53 862.11 388.36 861.711 388.36 861.223H389.409C389.409 861.442 389.473 861.635 389.602 861.803C389.735 861.967 389.958 862.049 390.27 862.049C390.579 862.049 390.797 861.967 390.926 861.803C391.055 861.635 391.12 861.442 391.12 861.223ZM396.424 863.661V870H395.012V863.661H396.424ZM400.561 863.661L397.708 867.475H396.096L395.909 866.198H397.087L398.797 863.661H400.561ZM398.909 870L396.999 867.235L398.112 866.432L400.766 870H398.909ZM403.493 867.938L405.983 863.661H407.395V870H405.983V865.717L403.493 870H402.081V863.661H403.493V867.938Z" fill="#49454F"/>
<rect x="160" y="900" width="108" height="4" rx="2" fill="#1D1B20"/>
<circle cx="376" cy="768" r="28" fill="#2AE881"/>
<path d="M376 760.221V775.778" stroke="white" stroke-width="1.86667" stroke-linecap="round"/>
<path d="M368.222 768H383.778" stroke="white" stroke-width="1.86667" stroke-linecap="round"/>
</g>
<rect x="4" y="4" width="420" height="914" rx="32" stroke="#CAC4D0" stroke-width="8"/>
<defs>
<linearGradient id="paint0_linear_141_42853" x1="35.5627" y1="163.3" x2="35.5627" y2="140.744" gradientUnits="userSpaceOnUse">
<stop stop-color="#FFB74D"/>
<stop offset="1" stop-color="#FFE0B2"/>
</linearGradient>
<linearGradient id="paint1_linear_141_42853" x1="35.2863" y1="161.049" x2="35.2863" y2="149.391" gradientUnits="userSpaceOnUse">
<stop offset="0.0023318" stop-color="#5D4037"/>
<stop offset="1" stop-color="#795548"/>
</linearGradient>
<clipPath id="clip0_141_42853">
<rect x="8" y="8" width="412" height="906" rx="28" fill="white"/>
</clipPath>
<clipPath id="clip1_141_42853">
<rect x="372" y="72" width="40" height="40" rx="20" fill="white"/>
</clipPath>
<clipPath id="clip2_141_42853">
<rect x="20.4004" y="822" width="64" height="32" rx="16" fill="white"/>
</clipPath>
<clipPath id="clip3_141_42853">
<rect x="182" y="822" width="64" height="32" rx="16" fill="white"/>
</clipPath>
<clipPath id="clip4_141_42853">
<rect width="14.3069" height="14.8571" fill="white" transform="translate(287.076 830)"/>
</clipPath>
</defs>
</svg>
